<svg width="150" height="88" viewBox="0 0 150 88" fill="none" xmlns="http://www.w3.org/2000/svg">
<path d="M41.3768 50.389V47.4747C41.3768 46.339 40.8224 45.7694 39.7137 45.7694H39.121C38.0402 45.7694 37.4998 46.339 37.4998 47.4747V52.1921C37.4998 52.7198 37.6044 53.0762 37.8171 53.2614C38.0298 53.4466 38.3715 53.6842 38.8456 53.9743L42.4471 55.9171C43.2385 56.3679 43.7998 56.7174 44.1276 56.969C44.4553 57.2206 44.7133 57.5246 44.8981 57.881C45.0828 58.2374 45.177 58.9188 45.177 59.9217V65.988C45.177 69.1854 43.6464 70.7858 40.5888 70.7858H38.2564C35.2232 70.7858 33.7066 69.0421 33.7066 65.5512V64.122H37.5033V65.67C37.5033 66.7812 38.0716 67.3333 39.2047 67.3333H39.8776C40.8782 67.3333 41.3802 66.7777 41.3802 65.67V60.8338C41.3802 60.3061 41.2757 59.9497 41.063 59.7645C40.8503 59.5793 40.5086 59.3417 40.0345 59.0516L36.433 57.0284C35.6416 56.6055 35.0663 56.2491 34.7107 55.9591C34.3551 55.669 34.0971 55.2916 33.9402 54.8304C33.7833 54.3691 33.7031 53.7681 33.7031 53.0273V47.1986C33.7031 43.9453 35.2197 42.3204 38.2529 42.3204H40.6272C43.6604 42.3204 45.177 43.9453 45.177 47.1986V50.3925H41.3802L41.3768 50.389Z" fill="#3C3C3B"/>
<path d="M59.9664 64.1289V65.953C59.9664 69.1783 58.4498 70.7892 55.4166 70.7892H52.9657C49.9325 70.7892 48.4159 69.1783 48.4159 65.953V47.1601C48.4159 43.9348 49.9325 42.3239 52.9657 42.3239H55.4166C58.4498 42.3239 59.9664 43.9348 59.9664 47.1601V50.3715H56.1697V47.4362C56.1697 46.3249 55.6014 45.7693 54.4683 45.7693H53.7153C52.7112 45.7693 52.2126 46.3249 52.2126 47.4362V65.6769C52.2126 66.7881 52.7147 67.3438 53.7153 67.3438H54.6636C55.6677 67.3438 56.1662 66.7881 56.1662 65.6769V64.1289H59.963H59.9664Z" fill="#3C3C3B"/>
<path d="M71.7436 70.7893V58.3178H67.0753V70.7893H63.2786V42.3204H67.0753V54.8688H71.7436V42.3204H75.5403V70.7893H71.7436Z" fill="#3C3C3B"/>
<path d="M83.5625 70.7893C80.5014 70.7893 78.9744 69.1784 78.9744 65.9531V47.1986C78.9744 43.9453 80.491 42.3204 83.5242 42.3204H87.164C90.1972 42.3204 91.7138 43.9453 91.7138 47.1986V65.9531C91.7138 69.1784 90.1832 70.7893 87.1256 70.7893H83.566H83.5625ZM84.4725 67.3403H86.4109C87.4115 67.3403 87.9136 66.7847 87.9136 65.6735V47.4327C87.9136 46.3215 87.3453 45.7659 86.2122 45.7659H84.4306C83.3219 45.7659 82.7676 46.3215 82.7676 47.4327V65.6735C82.7676 66.7847 83.3359 67.3403 84.469 67.3403" fill="#3C3C3B"/>
<path d="M99.8024 70.7893C96.7413 70.7893 95.2142 69.1784 95.2142 65.9531V47.1986C95.2142 43.9453 96.7308 42.3204 99.764 42.3204H103.404C106.437 42.3204 107.954 43.9453 107.954 47.1986V65.9531C107.954 69.1784 106.423 70.7893 103.366 70.7893H99.8059H99.8024ZM100.712 67.3403H102.651C103.651 67.3403 104.153 66.7847 104.153 65.6735V47.4327C104.153 46.3215 103.585 45.7659 102.452 45.7659H100.671C99.5618 45.7659 99.0075 46.3215 99.0075 47.4327V65.6735C99.0075 66.7847 99.5758 67.3403 100.709 67.3403" fill="#3C3C3B"/>
<path d="M118.905 70.7893H111.301V42.3204H115.101V67.3403H118.905V70.7893Z" fill="#3C3C3B"/>
<path d="M39.4837 28.2311L42.4367 17.5208H45.2921V38.9239H42.4367V25.7955L40.7807 30.8903H38.2042L36.5481 25.7955V38.9239H33.6927V17.5208H36.2204L39.4837 28.2311Z" fill="#3C3C3B"/>
<path d="M53.6664 17.5208H56.1941L52.746 31.6381V38.9239H49.929V31.6381L46.3798 17.5208H48.897L51.3375 28.2311L53.6664 17.5208Z" fill="#3C3C3B"/>
<path d="M59.7921 38.9239V17.5208H64.7603C67.4379 17.5208 68.7766 18.8906 68.7766 21.6337V35.8244C68.7766 37.8931 67.6366 38.9239 65.3565 38.9239H59.7956H59.7921ZM62.6475 36.3311H64.7882C65.5412 36.3311 65.9178 36.0131 65.9178 35.3771V21.6616C65.9178 20.6273 65.4924 20.1101 64.6383 20.1101H62.644V36.3276L62.6475 36.3311Z" fill="#2DB8C5"/>
<path d="M96.588 20.1136V38.9239H93.7326V20.1136H90.9957V17.5208H99.3248V20.1136H96.588Z" fill="#2DB8C5"/>
<path d="M103.007 38.9239H100.151V21.1864C100.151 18.7438 101.291 17.5208 103.571 17.5208H105.712C107.992 17.5208 109.132 18.7438 109.132 21.1864V38.9239H106.277V29.6463H103.003V38.9239H103.007ZM106.277 27.0535V21.3646C106.277 20.5294 105.862 20.1136 105.029 20.1136H104.255C103.421 20.1136 103.003 20.5294 103.003 21.3646V27.0535H106.277Z" fill="#2DB8C5"/>
<path d="M116.98 38.9239H111.297V17.5208H114.153V36.3311H116.98V38.9239Z" fill="#2DB8C5"/>
<path d="M84.7829 23.5731V21.2458C84.7829 18.7613 83.5731 17.5208 81.1536 17.5208H79.1907C76.9908 17.5208 75.889 18.7438 75.889 21.1864V35.3177C75.889 37.7219 76.9908 38.9239 79.1907 38.9239H84.7829V27.0535H80.3447V29.6114H81.9275V36.3311H79.9926C79.1593 36.3311 78.7444 35.8139 78.7444 34.7796V21.6616C78.7444 20.6273 79.1628 20.1136 79.9926 20.1136H80.7073C81.5196 20.1136 81.9275 20.6308 81.9275 21.6616V23.5696H84.7829V23.5731Z" fill="#2DB8C5"/>
<path d="M73.7414 23.573H70.886V38.9274H73.7414V23.573Z" fill="#2DB8C5"/>
<path d="M73.7413 17.5208H70.8824V20.1136H73.7413V17.5208Z" fill="#2DB8C5"/>
<path d="M89.7091 23.573H86.8538V38.9274H89.7091V23.573Z" fill="#2DB8C5"/>
<path d="M89.7092 17.5208H86.8503V20.1136H89.7092V17.5208Z" fill="#2DB8C5"/>
<path d="M122.886 23.0104C122.886 19.6907 125.7 17 129.172 17C132.007 17 134.402 18.7926 135.186 21.2562C135.688 21.1444 136.208 21.078 136.748 21.078C140.527 21.078 143.588 24.0063 143.588 27.6195C143.588 28.1052 143.529 28.5769 143.425 29.0312C145.203 29.807 146.44 31.5192 146.44 33.511C146.44 34.3672 146.21 35.1709 145.809 35.8732C148.368 37.9105 150 40.9821 150 44.4171C150 47.8521 148.403 50.8502 145.889 52.891C146.238 53.5549 146.44 54.3027 146.44 55.0959C146.44 57.1122 145.171 58.8454 143.355 59.6072C143.501 60.1453 143.585 60.7079 143.585 61.288C143.585 64.9886 140.447 67.9868 136.577 67.9868C136.005 67.9868 135.451 67.9134 134.918 67.7911C133.941 69.9052 131.735 71.3798 129.165 71.3798C125.693 71.3798 122.879 68.6892 122.879 65.3695V23.0104H122.886Z" fill="#2DB8C5"/>
<path d="M27.114 23.0104C27.114 19.6907 24.3004 17 20.8279 17C17.9935 17 15.5983 18.7926 14.8138 21.2562C14.3118 21.1444 13.7923 21.078 13.2519 21.078C9.47264 21.078 6.41155 24.0063 6.41155 27.6195C6.41155 28.1052 6.47082 28.5769 6.57541 29.0312C4.79733 29.807 3.55965 31.5192 3.55965 33.511C3.55965 34.3672 3.78975 35.1709 4.19069 35.8732C1.63165 37.9105 0 40.9821 0 44.4171C0 47.8521 1.59679 50.8502 4.1105 52.891C3.76186 53.5549 3.55965 54.3027 3.55965 55.0959C3.55965 57.1122 4.82871 58.8454 6.64514 59.6072C6.49871 60.1453 6.41503 60.7079 6.41503 61.288C6.41503 64.9886 9.55282 67.9868 13.4228 67.9868C13.9945 67.9868 14.5489 67.9134 15.0823 67.7911C16.0585 69.9052 18.2619 71.3798 20.8349 71.3798C24.3074 71.3798 27.121 68.6892 27.121 65.3695V23.0104H27.114Z" fill="#3C3C3B"/>
</svg>
