<svg width="78" height="76" viewBox="0 0 78 76" fill="none" xmlns="http://www.w3.org/2000/svg">
<rect x="7.5" y="6.5" width="63" height="63" rx="9.5" fill="#F3E9D2"/>
<rect x="7.5" y="6.5" width="63" height="63" rx="9.5" stroke="black"/>
<rect x="14.9925" y="47.5534" width="3.5" height="24.5" rx="1.75" transform="rotate(-50 14.9925 47.5534)" fill="white"/>
<rect x="14.9925" y="47.5534" width="3.5" height="24.5" rx="1.75" transform="rotate(-50 14.9925 47.5534)" fill="white"/>
<rect x="14.9925" y="47.5534" width="3.5" height="24.5" rx="1.75" transform="rotate(-50 14.9925 47.5534)" fill="white"/>
<rect x="14.9925" y="47.5534" width="3.5" height="24.5" rx="1.75" transform="rotate(-50 14.9925 47.5534)" fill="#035CB5"/>
<rect x="14.9925" y="47.5534" width="3.5" height="24.5" rx="1.75" transform="rotate(-50 14.9925 47.5534)" stroke="black" stroke-width="0.5"/>
<rect x="28.6846" y="49.9045" width="3.5" height="24.5" rx="1.75" transform="rotate(-50 28.6846 49.9045)" fill="#F2A202" stroke="black" stroke-width="0.5"/>
<rect x="23.9916" y="36.8287" width="3.5" height="24.5" rx="1.75" transform="rotate(-50 23.9916 36.8287)" fill="white"/>
<rect x="23.9916" y="36.8287" width="3.5" height="24.5" rx="1.75" transform="rotate(-50 23.9916 36.8287)" fill="white"/>
<rect x="23.9916" y="36.8287" width="3.5" height="24.5" rx="1.75" transform="rotate(-50 23.9916 36.8287)" fill="white"/>
<rect x="23.9916" y="36.8287" width="3.5" height="24.5" rx="1.75" transform="rotate(-50 23.9916 36.8287)" fill="#035CB5"/>
<rect x="23.9916" y="36.8287" width="3.5" height="24.5" rx="1.75" transform="rotate(-50 23.9916 36.8287)" stroke="black" stroke-width="0.5"/>
<rect x="17.7664" y="22.4674" width="3.5" height="25.5" rx="1.75" transform="rotate(-50 17.7664 22.4674)" fill="white"/>
<rect x="17.7664" y="22.4674" width="3.5" height="25.5" rx="1.75" transform="rotate(-50 17.7664 22.4674)" fill="white"/>
<rect x="17.7664" y="22.4674" width="3.5" height="25.5" rx="1.75" transform="rotate(-50 17.7664 22.4674)" fill="white"/>
<rect x="17.7664" y="22.4674" width="3.5" height="25.5" rx="1.75" transform="rotate(-50 17.7664 22.4674)" fill="#F2A202"/>
<rect x="17.7664" y="22.4674" width="3.5" height="25.5" rx="1.75" transform="rotate(-50 17.7664 22.4674)" stroke="black" stroke-width="0.5"/>
<rect x="38.4496" y="39.8227" width="3.5" height="25.5" rx="1.75" transform="rotate(-50 38.4496 39.8227)" fill="white"/>
<rect x="38.4496" y="39.8227" width="3.5" height="25.5" rx="1.75" transform="rotate(-50 38.4496 39.8227)" fill="white"/>
<rect x="38.4496" y="39.8227" width="3.5" height="25.5" rx="1.75" transform="rotate(-50 38.4496 39.8227)" fill="white"/>
<rect x="38.4496" y="39.8227" width="3.5" height="25.5" rx="1.75" transform="rotate(-50 38.4496 39.8227)" fill="#F2A202"/>
<rect x="38.4496" y="39.8227" width="3.5" height="25.5" rx="1.75" transform="rotate(-50 38.4496 39.8227)" stroke="black" stroke-width="0.5"/>
<rect x="32.9906" y="26.1041" width="3.5" height="24.5" rx="1.75" transform="rotate(-50 32.9906 26.1041)" fill="white"/>
<rect x="32.9906" y="26.1041" width="3.5" height="24.5" rx="1.75" transform="rotate(-50 32.9906 26.1041)" fill="white"/>
<rect x="32.9906" y="26.1041" width="3.5" height="24.5" rx="1.75" transform="rotate(-50 32.9906 26.1041)" fill="white"/>
<rect x="32.9906" y="26.1041" width="3.5" height="24.5" rx="1.75" transform="rotate(-50 32.9906 26.1041)" fill="#035CB5"/>
<rect x="32.9906" y="26.1041" width="3.5" height="24.5" rx="1.75" transform="rotate(-50 32.9906 26.1041)" stroke="black" stroke-width="0.5"/>
<rect x="28.2976" y="13.0284" width="3.5" height="24.5" rx="1.75" transform="rotate(-50 28.2976 13.0284)" fill="#F2A202" stroke="black" stroke-width="0.5"/>
<rect x="41.9896" y="15.3795" width="3.5" height="24.5" rx="1.75" transform="rotate(-50 41.9896 15.3795)" fill="white"/>
<rect x="41.9896" y="15.3795" width="3.5" height="24.5" rx="1.75" transform="rotate(-50 41.9896 15.3795)" fill="white"/>
<rect x="41.9896" y="15.3795" width="3.5" height="24.5" rx="1.75" transform="rotate(-50 41.9896 15.3795)" fill="white"/>
<rect x="41.9896" y="15.3795" width="3.5" height="24.5" rx="1.75" transform="rotate(-50 41.9896 15.3795)" fill="#035CB5"/>
<rect x="41.9896" y="15.3795" width="3.5" height="24.5" rx="1.75" transform="rotate(-50 41.9896 15.3795)" stroke="black" stroke-width="0.5"/>
</svg>
