<svg width="64" height="64" viewBox="0 0 64 64" fill="none" xmlns="http://www.w3.org/2000/svg">
<g clip-path="url(#clip0_141_18)">
<rect width="64" height="64" rx="10" fill="#F3E9D2"/>
<rect x="7.99255" y="41.5534" width="3.5" height="24.5" rx="1.75" transform="rotate(-50 7.99255 41.5534)" fill="white"/>
<rect x="7.99255" y="41.5534" width="3.5" height="24.5" rx="1.75" transform="rotate(-50 7.99255 41.5534)" fill="white"/>
<rect x="7.99255" y="41.5534" width="3.5" height="24.5" rx="1.75" transform="rotate(-50 7.99255 41.5534)" fill="white"/>
<rect x="7.99255" y="41.5534" width="3.5" height="24.5" rx="1.75" transform="rotate(-50 7.99255 41.5534)" fill="#035CB5"/>
<rect x="7.99255" y="41.5534" width="3.5" height="24.5" rx="1.75" transform="rotate(-50 7.99255 41.5534)" stroke="black" stroke-width="0.5"/>
<rect x="21.6846" y="43.9045" width="3.5" height="24.5" rx="1.75" transform="rotate(-50 21.6846 43.9045)" fill="#F2A202" stroke="black" stroke-width="0.5"/>
<rect x="16.9916" y="30.8287" width="3.5" height="24.5" rx="1.75" transform="rotate(-50 16.9916 30.8287)" fill="white"/>
<rect x="16.9916" y="30.8287" width="3.5" height="24.5" rx="1.75" transform="rotate(-50 16.9916 30.8287)" fill="white"/>
<rect x="16.9916" y="30.8287" width="3.5" height="24.5" rx="1.75" transform="rotate(-50 16.9916 30.8287)" fill="white"/>
<rect x="16.9916" y="30.8287" width="3.5" height="24.5" rx="1.75" transform="rotate(-50 16.9916 30.8287)" fill="#035CB5"/>
<rect x="16.9916" y="30.8287" width="3.5" height="24.5" rx="1.75" transform="rotate(-50 16.9916 30.8287)" stroke="black" stroke-width="0.5"/>
<rect x="10.7665" y="16.4674" width="3.5" height="25.5" rx="1.75" transform="rotate(-50 10.7665 16.4674)" fill="white"/>
<rect x="10.7665" y="16.4674" width="3.5" height="25.5" rx="1.75" transform="rotate(-50 10.7665 16.4674)" fill="white"/>
<rect x="10.7665" y="16.4674" width="3.5" height="25.5" rx="1.75" transform="rotate(-50 10.7665 16.4674)" fill="white"/>
<rect x="10.7665" y="16.4674" width="3.5" height="25.5" rx="1.75" transform="rotate(-50 10.7665 16.4674)" fill="#F2A202"/>
<rect x="10.7665" y="16.4674" width="3.5" height="25.5" rx="1.75" transform="rotate(-50 10.7665 16.4674)" stroke="black" stroke-width="0.5"/>
<rect x="31.4497" y="33.8227" width="3.5" height="25.5" rx="1.75" transform="rotate(-50 31.4497 33.8227)" fill="white"/>
<rect x="31.4497" y="33.8227" width="3.5" height="25.5" rx="1.75" transform="rotate(-50 31.4497 33.8227)" fill="white"/>
<rect x="31.4497" y="33.8227" width="3.5" height="25.5" rx="1.75" transform="rotate(-50 31.4497 33.8227)" fill="white"/>
<rect x="31.4497" y="33.8227" width="3.5" height="25.5" rx="1.75" transform="rotate(-50 31.4497 33.8227)" fill="#F2A202"/>
<rect x="31.4497" y="33.8227" width="3.5" height="25.5" rx="1.75" transform="rotate(-50 31.4497 33.8227)" stroke="black" stroke-width="0.5"/>
<rect x="25.9906" y="20.1041" width="3.5" height="24.5" rx="1.75" transform="rotate(-50 25.9906 20.1041)" fill="white"/>
<rect x="25.9906" y="20.1041" width="3.5" height="24.5" rx="1.75" transform="rotate(-50 25.9906 20.1041)" fill="white"/>
<rect x="25.9906" y="20.1041" width="3.5" height="24.5" rx="1.75" transform="rotate(-50 25.9906 20.1041)" fill="white"/>
<rect x="25.9906" y="20.1041" width="3.5" height="24.5" rx="1.75" transform="rotate(-50 25.9906 20.1041)" fill="#035CB5"/>
<rect x="25.9906" y="20.1041" width="3.5" height="24.5" rx="1.75" transform="rotate(-50 25.9906 20.1041)" stroke="black" stroke-width="0.5"/>
<rect x="21.2976" y="7.02837" width="3.5" height="24.5" rx="1.75" transform="rotate(-50 21.2976 7.02837)" fill="#F2A202" stroke="black" stroke-width="0.5"/>
<rect x="34.9896" y="9.37951" width="3.5" height="24.5" rx="1.75" transform="rotate(-50 34.9896 9.37951)" fill="white"/>
<rect x="34.9896" y="9.37951" width="3.5" height="24.5" rx="1.75" transform="rotate(-50 34.9896 9.37951)" fill="white"/>
<rect x="34.9896" y="9.37951" width="3.5" height="24.5" rx="1.75" transform="rotate(-50 34.9896 9.37951)" fill="white"/>
<rect x="34.9896" y="9.37951" width="3.5" height="24.5" rx="1.75" transform="rotate(-50 34.9896 9.37951)" fill="#035CB5"/>
<rect x="34.9896" y="9.37951" width="3.5" height="24.5" rx="1.75" transform="rotate(-50 34.9896 9.37951)" stroke="black" stroke-width="0.5"/>
</g>
<defs>
<clipPath id="clip0_141_18">
<rect width="64" height="64" rx="10" fill="white"/>
</clipPath>
</defs>
</svg>
