<svg width="64" height="64" viewBox="0 0 64 64" fill="none" xmlns="http://www.w3.org/2000/svg">
<rect x="0.347778" width="64" height="64" rx="10" fill="#020817"/>
<rect x="26.1545" y="19.9536" width="2" height="24" transform="rotate(-50 26.1545 19.9536)" fill="white"/>
<rect x="26.1545" y="19.9536" width="2" height="24" transform="rotate(-50 26.1545 19.9536)" fill="white"/>
<rect x="26.1545" y="19.9536" width="2" height="24" transform="rotate(-50 26.1545 19.9536)" fill="white"/>
<rect x="26.1545" y="19.9536" width="2" height="24" transform="rotate(-50 26.1545 19.9536)" fill="white"/>
<rect x="18.4411" y="29.1461" width="2" height="24" transform="rotate(-50 18.4411 29.1461)" fill="white"/>
<rect x="18.4411" y="29.1461" width="2" height="24" transform="rotate(-50 18.4411 29.1461)" fill="white"/>
<rect x="18.4411" y="29.1461" width="2" height="24" transform="rotate(-50 18.4411 29.1461)" fill="white"/>
<rect x="18.4411" y="29.1461" width="2" height="24" transform="rotate(-50 18.4411 29.1461)" fill="white"/>
<rect x="23.7769" y="41.4558" width="2" height="24" transform="rotate(-50 23.7769 41.4558)" fill="white"/>
<rect x="23.7769" y="41.4558" width="2" height="24" transform="rotate(-50 23.7769 41.4558)" fill="white"/>
<rect x="23.7769" y="41.4558" width="2" height="24" transform="rotate(-50 23.7769 41.4558)" fill="white"/>
<rect x="23.7769" y="41.4558" width="2" height="24" transform="rotate(-50 23.7769 41.4558)" fill="white"/>
<rect x="10.7276" y="38.3387" width="2" height="24" transform="rotate(-50 10.7276 38.3387)" fill="white"/>
<rect x="10.7276" y="38.3387" width="2" height="24" transform="rotate(-50 10.7276 38.3387)" fill="white"/>
<rect x="10.7276" y="38.3387" width="2" height="24" transform="rotate(-50 10.7276 38.3387)" fill="white"/>
<rect x="10.7276" y="38.3387" width="2" height="24" transform="rotate(-50 10.7276 38.3387)" fill="white"/>
<rect x="20.8187" y="7.64386" width="2" height="24" transform="rotate(-50 20.8187 7.64386)" fill="white"/>
<rect x="20.8187" y="7.64386" width="2" height="24" transform="rotate(-50 20.8187 7.64386)" fill="white"/>
<rect x="20.8187" y="7.64386" width="2" height="24" transform="rotate(-50 20.8187 7.64386)" fill="white"/>
<rect x="20.8187" y="7.64386" width="2" height="24" transform="rotate(-50 20.8187 7.64386)" fill="white"/>
<rect x="33.868" y="10.761" width="2" height="24" transform="rotate(-50 33.868 10.761)" fill="white"/>
<rect x="33.868" y="10.761" width="2" height="24" transform="rotate(-50 33.868 10.761)" fill="white"/>
<rect x="33.868" y="10.761" width="2" height="24" transform="rotate(-50 33.868 10.761)" fill="white"/>
<rect x="33.868" y="10.761" width="2" height="24" transform="rotate(-50 33.868 10.761)" fill="white"/>
<rect x="11.5756" y="15.5418" width="2" height="25" transform="rotate(-50 11.5756 15.5418)" fill="white"/>
<rect x="11.5756" y="15.5418" width="2" height="25" transform="rotate(-50 11.5756 15.5418)" fill="white"/>
<rect x="11.5756" y="15.5418" width="2" height="25" transform="rotate(-50 11.5756 15.5418)" fill="white"/>
<rect x="11.5756" y="15.5418" width="2" height="25" transform="rotate(-50 11.5756 15.5418)" fill="white"/>
<rect x="32.2564" y="32.9061" width="2" height="25" transform="rotate(-50 32.2564 32.9061)" fill="white"/>
<rect x="32.2564" y="32.9061" width="2" height="25" transform="rotate(-50 32.2564 32.9061)" fill="white"/>
<rect x="32.2564" y="32.9061" width="2" height="25" transform="rotate(-50 32.2564 32.9061)" fill="white"/>
<rect x="32.2564" y="32.9061" width="2" height="25" transform="rotate(-50 32.2564 32.9061)" fill="white"/>
</svg>
