<svg width="64" height="64" viewBox="0 0 64 64" fill="none" xmlns="http://www.w3.org/2000/svg">
<path d="M25.6751 19.7967L26.9607 18.2646L45.3458 33.6915L44.0602 35.2236L25.6751 19.7967Z" fill="white"/>
<path d="M25.6751 19.7967L26.9607 18.2646L45.3458 33.6915L44.0602 35.2236L25.6751 19.7967Z" fill="white"/>
<path d="M25.6751 19.7967L26.9607 18.2646L45.3458 33.6915L44.0602 35.2236L25.6751 19.7967Z" fill="white"/>
<path d="M25.6751 19.7967L26.9607 18.2646L45.3458 33.6915L44.0602 35.2236L25.6751 19.7967Z" fill="white"/>
<path d="M17.9617 28.9892L19.2473 27.4571L37.6323 42.884L36.3468 44.4161L17.9617 28.9892Z" fill="white"/>
<path d="M17.9617 28.9892L19.2473 27.4571L37.6323 42.884L36.3468 44.4161L17.9617 28.9892Z" fill="white"/>
<path d="M17.9617 28.9892L19.2473 27.4571L37.6323 42.884L36.3468 44.4161L17.9617 28.9892Z" fill="white"/>
<path d="M17.9617 28.9892L19.2473 27.4571L37.6323 42.884L36.3468 44.4161L17.9617 28.9892Z" fill="white"/>
<path d="M23.2975 41.2989L24.5831 39.7668L42.9681 55.1937L41.6826 56.7258L23.2975 41.2989Z" fill="white"/>
<path d="M23.2975 41.2989L24.5831 39.7668L42.9681 55.1937L41.6826 56.7258L23.2975 41.2989Z" fill="white"/>
<path d="M23.2975 41.2989L24.5831 39.7668L42.9681 55.1937L41.6826 56.7258L23.2975 41.2989Z" fill="white"/>
<path d="M23.2975 41.2989L24.5831 39.7668L42.9681 55.1937L41.6826 56.7258L23.2975 41.2989Z" fill="white"/>
<path d="M10.2482 38.1817L11.5338 36.6496L29.9189 52.0765L28.6333 53.6086L10.2482 38.1817Z" fill="white"/>
<path d="M10.2482 38.1817L11.5338 36.6496L29.9189 52.0765L28.6333 53.6086L10.2482 38.1817Z" fill="white"/>
<path d="M10.2482 38.1817L11.5338 36.6496L29.9189 52.0765L28.6333 53.6086L10.2482 38.1817Z" fill="white"/>
<path d="M10.2482 38.1817L11.5338 36.6496L29.9189 52.0765L28.6333 53.6086L10.2482 38.1817Z" fill="white"/>
<path d="M20.3393 7.48695L21.6249 5.95486L40.01 21.3818L38.7244 22.9139L20.3393 7.48695Z" fill="white"/>
<path d="M20.3393 7.48695L21.6249 5.95486L40.01 21.3818L38.7244 22.9139L20.3393 7.48695Z" fill="white"/>
<path d="M20.3393 7.48695L21.6249 5.95486L40.01 21.3818L38.7244 22.9139L20.3393 7.48695Z" fill="white"/>
<path d="M20.3393 7.48695L21.6249 5.95486L40.01 21.3818L38.7244 22.9139L20.3393 7.48695Z" fill="white"/>
<path d="M33.3886 10.6041L34.6742 9.07205L53.0592 24.499L51.7737 26.031L33.3886 10.6041Z" fill="white"/>
<path d="M33.3886 10.6041L34.6742 9.07205L53.0592 24.499L51.7737 26.031L33.3886 10.6041Z" fill="white"/>
<path d="M33.3886 10.6041L34.6742 9.07205L53.0592 24.499L51.7737 26.031L33.3886 10.6041Z" fill="white"/>
<path d="M33.3886 10.6041L34.6742 9.07205L53.0592 24.499L51.7737 26.031L33.3886 10.6041Z" fill="white"/>
<path d="M11.0962 15.3849L12.3818 13.8528L31.5329 29.9225L30.2473 31.4546L11.0962 15.3849Z" fill="white"/>
<path d="M11.0962 15.3849L12.3818 13.8528L31.5329 29.9225L30.2473 31.4546L11.0962 15.3849Z" fill="white"/>
<path d="M11.0962 15.3849L12.3818 13.8528L31.5329 29.9225L30.2473 31.4546L11.0962 15.3849Z" fill="white"/>
<path d="M11.0962 15.3849L12.3818 13.8528L31.5329 29.9225L30.2473 31.4546L11.0962 15.3849Z" fill="white"/>
<path d="M31.777 32.7492L33.0626 31.2171L52.2137 47.2868L50.9281 48.8189L31.777 32.7492Z" fill="white"/>
<path d="M31.777 32.7492L33.0626 31.2171L52.2137 47.2868L50.9281 48.8189L31.777 32.7492Z" fill="white"/>
<path d="M31.777 32.7492L33.0626 31.2171L52.2137 47.2868L50.9281 48.8189L31.777 32.7492Z" fill="white"/>
<path d="M31.777 32.7492L33.0626 31.2171L52.2137 47.2868L50.9281 48.8189L31.777 32.7492Z" fill="white"/>
</svg>
