<svg width="64" height="64" xmlns="http://www.w3.org/2000/svg">
  <defs>
    <pattern id="noisePattern" x="0" y="0" width="64" height="64" patternUnits="userSpaceOnUse">
      <!-- Random scattered dots for noise effect -->
      <circle cx="5" cy="8" r="0.5" fill="black" opacity="0.3"/>
      <circle cx="12" cy="3" r="0.3" fill="black" opacity="0.4"/>
      <circle cx="8" cy="15" r="0.4" fill="white" opacity="0.2"/>
      <circle cx="20" cy="7" r="0.3" fill="black" opacity="0.5"/>
      <circle cx="25" cy="12" r="0.5" fill="white" opacity="0.3"/>
      <circle cx="18" cy="18" r="0.3" fill="black" opacity="0.3"/>
      <circle cx="32" cy="5" r="0.4" fill="black" opacity="0.4"/>
      <circle cx="28" cy="22" r="0.3" fill="white" opacity="0.2"/>
      <circle cx="35" cy="16" r="0.5" fill="black" opacity="0.3"/>
      <circle cx="42" cy="9" r="0.3" fill="white" opacity="0.4"/>
      <circle cx="38" cy="25" r="0.4" fill="black" opacity="0.3"/>
      <circle cx="48" cy="14" r="0.3" fill="black" opacity="0.5"/>
      <circle cx="45" cy="28" r="0.5" fill="white" opacity="0.2"/>
      <circle cx="52" cy="6" r="0.4" fill="black" opacity="0.4"/>
      <circle cx="58" cy="19" r="0.3" fill="white" opacity="0.3"/>
      <circle cx="55" cy="31" r="0.4" fill="black" opacity="0.3"/>
      <circle cx="3" cy="35" r="0.3" fill="white" opacity="0.2"/>
      <circle cx="15" cy="28" r="0.4" fill="black" opacity="0.4"/>
      <circle cx="9" cy="42" r="0.3" fill="black" opacity="0.3"/>
      <circle cx="22" cy="33" r="0.5" fill="white" opacity="0.3"/>
      <circle cx="27" cy="38" r="0.3" fill="black" opacity="0.5"/>
      <circle cx="33" cy="45" r="0.4" fill="white" opacity="0.2"/>
      <circle cx="40" cy="35" r="0.3" fill="black" opacity="0.4"/>
      <circle cx="46" cy="48" r="0.5" fill="black" opacity="0.3"/>
      <circle cx="51" cy="42" r="0.3" fill="white" opacity="0.3"/>
      <circle cx="59" cy="38" r="0.4" fill="black" opacity="0.4"/>
      <circle cx="7" cy="52" r="0.3" fill="black" opacity="0.3"/>
      <circle cx="16" cy="48" r="0.4" fill="white" opacity="0.2"/>
      <circle cx="24" cy="55" r="0.3" fill="black" opacity="0.5"/>
      <circle cx="31" cy="58" r="0.5" fill="white" opacity="0.3"/>
      <circle cx="37" cy="52" r="0.3" fill="black" opacity="0.4"/>
      <circle cx="44" cy="60" r="0.4" fill="black" opacity="0.3"/>
      <circle cx="53" cy="55" r="0.3" fill="white" opacity="0.2"/>
      <circle cx="60" cy="50" r="0.4" fill="black" opacity="0.4"/>
    </pattern>
  </defs>
  <rect width="100%" height="100%" fill="url(#noisePattern)"/>
</svg>