<svg width="30" height="30" viewBox="0 0 30 30" fill="none" xmlns="http://www.w3.org/2000/svg">
<path d="M7.5 5V7.5M7.5 7.5V10M7.5 7.5H5M7.5 7.5H10M17.5 15V17.5M17.5 17.5V20M17.5 17.5H15M17.5 17.5H20M7.5 15V17.5M7.5 17.5V20M7.5 17.5H5M7.5 17.5H10M12.5 10V12.5M12.5 12.5V15M12.5 12.5H10M12.5 12.5H15M17.5 5V7.5M17.5 7.5V10M17.5 7.5H15M17.5 7.5H20M2.5 0V2.5M2.5 2.5V5M2.5 2.5H0M2.5 2.5H5M2.5 10V12.5M2.5 12.5V15M2.5 12.5H0M2.5 12.5H5M2.5 20V22.5M2.5 22.5V25M2.5 22.5H0M2.5 22.5H5M12.5 20V22.5M12.5 22.5V25M12.5 22.5H10M12.5 22.5H15M22.5 20V22.5M22.5 22.5V25M22.5 22.5H20M22.5 22.5H25M27.5 25V27.5M27.5 27.5V30M27.5 27.5H25M27.5 27.5H30M22.5 10V12.5M22.5 12.5V15M22.5 12.5H20M22.5 12.5H25M27.5 5V7.5M27.5 7.5V10M27.5 7.5H25M27.5 7.5H30M27.5 15V17.5M27.5 17.5V20M27.5 17.5H25M27.5 17.5H30M17.5 25V27.5M17.5 27.5V30M17.5 27.5H15M17.5 27.5H20M7.5 25V27.5M7.5 27.5V30M7.5 27.5H5M7.5 27.5H10M12.5 0V2.5M12.5 2.5V5M12.5 2.5H10M12.5 2.5H15M22.5 0V2.5M22.5 2.5V5M22.5 2.5H20M22.5 2.5H25" stroke="black"/>
</svg>
