<svg width="115" height="115" viewBox="0 0 115 115" fill="none" xmlns="http://www.w3.org/2000/svg">
<rect x="0.5" y="0.5" width="99" height="99" fill="white" stroke="black"/>
<mask id="path-2-inside-1_912_332" fill="white">
<path d="M100 0L114.142 14.1421V114.142L100 100V0Z"/>
</mask>
<path d="M100 0L114.142 14.1421V114.142L100 100V0Z" fill="white"/>
<path d="M114.142 14.1421L114.849 14.8492V13.8492L114.142 13.1421V14.1421ZM114.142 114.142V115.142L114.849 115.849V114.849L114.142 114.142ZM100 0V1L114.142 15.1421V14.1421V13.1421L100 -1V0ZM114.142 14.1421L113.435 13.435V113.435L114.142 114.142L114.849 114.849V14.8492L114.142 14.1421ZM114.142 114.142V113.142L100 99V100V101L114.142 115.142V114.142Z" fill="black" mask="url(#path-2-inside-1_912_332)"/>
<mask id="path-4-inside-2_912_332" fill="white">
<path d="M0 100H100L114.142 114.142H14.1421L0 100Z"/>
</mask>
<path d="M0 100H100L114.142 114.142H14.1421L0 100Z" fill="white"/>
<path d="M14.1421 114.142H13.1421L13.8492 114.849H14.8492L14.1421 114.142ZM114.142 114.142L113.435 113.435H13.435L14.1421 114.142L14.8492 114.849H114.849L114.142 114.142ZM14.1421 114.142H15.1421L1 100H0H-1L13.1421 114.142H14.1421Z" fill="black" mask="url(#path-4-inside-2_912_332)"/>
</svg>
