<svg width="115" height="115" viewBox="0 0 115 115" fill="none" xmlns="http://www.w3.org/2000/svg">
<rect x="0.5" y="0.5" width="99" height="99" fill="white" stroke="black"/>
<rect x="4.5" y="5.5" width="90" height="90" rx="3.5" fill="#D9D9D9"/>
<rect x="4.5" y="5.5" width="90" height="90" rx="3.5" stroke="black"/>
<mask id="path-3-inside-1_947_1087" fill="white">
<path d="M4 9C4 6.79086 5.79086 5 8 5H91C93.2091 5 95 6.79086 95 9V92C95 94.2091 93.2091 96 91 96H8C5.79086 96 4 94.2091 4 92V9Z"/>
</mask>
<path d="M4 5H95H4M96 92C96 94.7614 93.7614 97 91 97H9C6.23858 97 4 94.7614 4 92C4 93.6569 5.79086 95 8 95H91C92.6569 95 94 93.6569 94 92H96ZM94 92M4 96V5V96M91 5C93.7614 5 96 7.23858 96 10V92C96 94.7614 93.7614 97 91 97V95C92.6569 95 94 93.6569 94 92V9C94 6.79086 92.6569 5 91 5Z" fill="black" mask="url(#path-3-inside-1_947_1087)"/>
<path d="M12 9.5H92C93.3807 9.5 94.5 10.6193 94.5 12V92C94.5 93.933 92.933 95.5 91 95.5H11C9.61929 95.5 8.5 94.3807 8.5 93V13C8.5 11.1273 9.97083 9.59842 11.8203 9.50488L12 9.5Z" fill="black" stroke="black"/>
<g clip-path="url(#clip0_947_1087)">
<path d="M17.0283 7.1416C19.1684 5.2155 22.4947 5.51529 24.2559 7.79297L24.9414 8.67969C25.6117 9.54666 25.9756 10.6121 25.9756 11.708V22C25.9756 24.7338 23.7592 26.9502 21.0254 26.9502H10.832C9.67643 26.9502 8.55676 26.5462 7.66797 25.8076L5.30566 23.8438C2.72503 21.699 2.98147 17.6619 5.8125 15.8604L10.6758 12.7656C10.9117 12.6155 11.1349 12.4459 11.3428 12.2588L17.0283 7.1416Z" fill="#969696" stroke="black" stroke-width="0.1"/>
<rect x="3.6" y="4.6" width="20.3" height="20.3" rx="3.9" fill="white" stroke="black" stroke-width="0.2"/>
<path d="M12.7064 16.6748H12.124L13.4326 13.0384H14.0665L15.3751 16.6748H14.7927L13.7646 13.699H13.7362L12.7064 16.6748ZM12.804 15.2508H14.6932V15.7124H12.804V15.2508Z" fill="black"/>
</g>
<g clip-path="url(#clip1_947_1087)">
<path d="M39.5283 7.1416C41.6684 5.2155 44.9947 5.51529 46.7559 7.79297L47.4414 8.67969C48.1117 9.54666 48.4756 10.6121 48.4756 11.708V22C48.4756 24.7338 46.2592 26.9502 43.5254 26.9502H33.332C32.1764 26.9502 31.0568 26.5462 30.168 25.8076L27.8057 23.8438C25.225 21.699 25.4815 17.6619 28.3125 15.8604L33.1758 12.7656C33.4117 12.6155 33.6349 12.4459 33.8428 12.2588L39.5283 7.1416Z" fill="#969696" stroke="black" stroke-width="0.1"/>
<rect x="26.1" y="4.6" width="20.3" height="20.3" rx="3.9" fill="white" stroke="black" stroke-width="0.2"/>
<path d="M35.2064 16.6748H34.624L35.9326 13.0384H36.5665L37.8751 16.6748H37.2927L36.2646 13.699H36.2362L35.2064 16.6748ZM35.304 15.2508H37.1932V15.7124H35.304V15.2508Z" fill="black"/>
</g>
<g clip-path="url(#clip2_947_1087)">
<path d="M62.0283 7.1416C64.1684 5.2155 67.4947 5.51529 69.2559 7.79297L69.9414 8.67969C70.6117 9.54666 70.9756 10.6121 70.9756 11.708V22C70.9756 24.7338 68.7592 26.9502 66.0254 26.9502H55.832C54.6764 26.9502 53.5568 26.5462 52.668 25.8076L50.3057 23.8438C47.725 21.699 47.9815 17.6619 50.8125 15.8604L55.6758 12.7656C55.9117 12.6155 56.1349 12.4459 56.3428 12.2588L62.0283 7.1416Z" fill="#969696" stroke="black" stroke-width="0.1"/>
<rect x="48.6" y="4.6" width="20.3" height="20.3" rx="3.9" fill="white" stroke="black" stroke-width="0.2"/>
<path d="M57.7064 16.6748H57.124L58.4326 13.0384H59.0665L60.3751 16.6748H59.7927L58.7646 13.699H58.7362L57.7064 16.6748ZM57.804 15.2508H59.6932V15.7124H57.804V15.2508Z" fill="black"/>
</g>
<g clip-path="url(#clip3_947_1087)">
<path d="M84.5283 7.1416C86.6684 5.2155 89.9947 5.51529 91.7559 7.79297L92.4414 8.67969C93.1117 9.54666 93.4756 10.6121 93.4756 11.708V22C93.4756 24.7338 91.2592 26.9502 88.5254 26.9502H78.332C77.1764 26.9502 76.0568 26.5462 75.168 25.8076L72.8057 23.8438C70.225 21.699 70.4815 17.6619 73.3125 15.8604L78.1758 12.7656C78.4117 12.6155 78.6349 12.4459 78.8428 12.2588L84.5283 7.1416Z" fill="#969696" stroke="black" stroke-width="0.1"/>
<rect x="71.1" y="4.6" width="20.3" height="20.3" rx="3.9" fill="white" stroke="black" stroke-width="0.2"/>
<path d="M80.2064 16.6748H79.624L80.9326 13.0384H81.5665L82.8751 16.6748H82.2927L81.2646 13.699H81.2362L80.2064 16.6748ZM80.304 15.2508H82.1932V15.7124H80.304V15.2508Z" fill="black"/>
</g>
<g clip-path="url(#clip4_947_1087)">
<path d="M17.0283 29.6416C19.1684 27.7155 22.4947 28.0153 24.2559 30.293L24.9414 31.1797C25.6117 32.0467 25.9756 33.1121 25.9756 34.208V44.5C25.9756 47.2338 23.7592 49.4502 21.0254 49.4502H10.832C9.67643 49.4502 8.55676 49.0462 7.66797 48.3076L5.30566 46.3438C2.72503 44.199 2.98147 40.1619 5.8125 38.3604L10.6758 35.2656C10.9117 35.1155 11.1349 34.9459 11.3428 34.7588L17.0283 29.6416Z" fill="#969696" stroke="black" stroke-width="0.1"/>
<rect x="3.6" y="27.1" width="20.3" height="20.3" rx="3.9" fill="white" stroke="black" stroke-width="0.2"/>
<path d="M12.7064 39.1748H12.124L13.4326 35.5384H14.0665L15.3751 39.1748H14.7927L13.7646 36.199H13.7362L12.7064 39.1748ZM12.804 37.7508H14.6932V38.2124H12.804V37.7508Z" fill="black"/>
</g>
<g clip-path="url(#clip5_947_1087)">
<path d="M39.5283 29.6416C41.6684 27.7155 44.9947 28.0153 46.7559 30.293L47.4414 31.1797C48.1117 32.0467 48.4756 33.1121 48.4756 34.208V44.5C48.4756 47.2338 46.2592 49.4502 43.5254 49.4502H33.332C32.1764 49.4502 31.0568 49.0462 30.168 48.3076L27.8057 46.3438C25.225 44.199 25.4815 40.1619 28.3125 38.3604L33.1758 35.2656C33.4117 35.1155 33.6349 34.9459 33.8428 34.7588L39.5283 29.6416Z" fill="#969696" stroke="black" stroke-width="0.1"/>
<rect x="26.1" y="27.1" width="20.3" height="20.3" rx="3.9" fill="white" stroke="black" stroke-width="0.2"/>
<path d="M35.2064 39.1748H34.624L35.9326 35.5384H36.5665L37.8751 39.1748H37.2927L36.2646 36.199H36.2362L35.2064 39.1748ZM35.304 37.7508H37.1932V38.2124H35.304V37.7508Z" fill="black"/>
</g>
<g clip-path="url(#clip6_947_1087)">
<path d="M62.0283 29.6416C64.1684 27.7155 67.4947 28.0153 69.2559 30.293L69.9414 31.1797C70.6117 32.0467 70.9756 33.1121 70.9756 34.208V44.5C70.9756 47.2338 68.7592 49.4502 66.0254 49.4502H55.832C54.6764 49.4502 53.5568 49.0462 52.668 48.3076L50.3057 46.3438C47.725 44.199 47.9815 40.1619 50.8125 38.3604L55.6758 35.2656C55.9117 35.1155 56.1349 34.9459 56.3428 34.7588L62.0283 29.6416Z" fill="#969696" stroke="black" stroke-width="0.1"/>
<rect x="48.6" y="27.1" width="20.3" height="20.3" rx="3.9" fill="white" stroke="black" stroke-width="0.2"/>
<path d="M57.7064 39.1748H57.124L58.4326 35.5384H59.0665L60.3751 39.1748H59.7927L58.7646 36.199H58.7362L57.7064 39.1748ZM57.804 37.7508H59.6932V38.2124H57.804V37.7508Z" fill="black"/>
</g>
<g clip-path="url(#clip7_947_1087)">
<path d="M84.5283 29.6416C86.6684 27.7155 89.9947 28.0153 91.7559 30.293L92.4414 31.1797C93.1117 32.0467 93.4756 33.1121 93.4756 34.208V44.5C93.4756 47.2338 91.2592 49.4502 88.5254 49.4502H78.332C77.1764 49.4502 76.0568 49.0462 75.168 48.3076L72.8057 46.3438C70.225 44.199 70.4815 40.1619 73.3125 38.3604L78.1758 35.2656C78.4117 35.1155 78.6349 34.9459 78.8428 34.7588L84.5283 29.6416Z" fill="#969696" stroke="black" stroke-width="0.1"/>
<rect x="71.1" y="27.1" width="20.3" height="20.3" rx="3.9" fill="white" stroke="black" stroke-width="0.2"/>
<path d="M80.2064 39.1748H79.624L80.9326 35.5384H81.5665L82.8751 39.1748H82.2927L81.2646 36.199H81.2362L80.2064 39.1748ZM80.304 37.7508H82.1932V38.2124H80.304V37.7508Z" fill="black"/>
</g>
<g clip-path="url(#clip8_947_1087)">
<path d="M17.0283 52.1416C19.1684 50.2155 22.4947 50.5153 24.2559 52.793L24.9414 53.6797C25.6117 54.5467 25.9756 55.6121 25.9756 56.708V67C25.9756 69.7338 23.7592 71.9502 21.0254 71.9502H10.832C9.67643 71.9502 8.55676 71.5462 7.66797 70.8076L5.30566 68.8438C2.72503 66.699 2.98147 62.6619 5.8125 60.8604L10.6758 57.7656C10.9117 57.6155 11.1349 57.4459 11.3428 57.2588L17.0283 52.1416Z" fill="#969696" stroke="black" stroke-width="0.1"/>
<rect x="3.6" y="49.6" width="20.3" height="20.3" rx="3.9" fill="white" stroke="black" stroke-width="0.2"/>
<path d="M12.7064 61.6748H12.124L13.4326 58.0384H14.0665L15.3751 61.6748H14.7927L13.7646 58.699H13.7362L12.7064 61.6748ZM12.804 60.2508H14.6932V60.7124H12.804V60.2508Z" fill="black"/>
</g>
<g clip-path="url(#clip9_947_1087)">
<path d="M39.5283 52.1416C41.6684 50.2155 44.9947 50.5153 46.7559 52.793L47.4414 53.6797C48.1117 54.5467 48.4756 55.6121 48.4756 56.708V67C48.4756 69.7338 46.2592 71.9502 43.5254 71.9502H33.332C32.1764 71.9502 31.0568 71.5462 30.168 70.8076L27.8057 68.8438C25.225 66.699 25.4815 62.6619 28.3125 60.8604L33.1758 57.7656C33.4117 57.6155 33.6349 57.4459 33.8428 57.2588L39.5283 52.1416Z" fill="#969696" stroke="black" stroke-width="0.1"/>
<rect x="26.1" y="49.6" width="20.3" height="20.3" rx="3.9" fill="white" stroke="black" stroke-width="0.2"/>
<path d="M35.2064 61.6748H34.624L35.9326 58.0384H36.5665L37.8751 61.6748H37.2927L36.2646 58.699H36.2362L35.2064 61.6748ZM35.304 60.2508H37.1932V60.7124H35.304V60.2508Z" fill="black"/>
</g>
<g clip-path="url(#clip10_947_1087)">
<path d="M62.0283 52.1416C64.1684 50.2155 67.4947 50.5153 69.2559 52.793L69.9414 53.6797C70.6117 54.5467 70.9756 55.6121 70.9756 56.708V67C70.9756 69.7338 68.7592 71.9502 66.0254 71.9502H55.832C54.6764 71.9502 53.5568 71.5462 52.668 70.8076L50.3057 68.8438C47.725 66.699 47.9815 62.6619 50.8125 60.8604L55.6758 57.7656C55.9117 57.6155 56.1349 57.4459 56.3428 57.2588L62.0283 52.1416Z" fill="#969696" stroke="black" stroke-width="0.1"/>
<rect x="48.6" y="49.6" width="20.3" height="20.3" rx="3.9" fill="white" stroke="black" stroke-width="0.2"/>
<path d="M57.7064 61.6748H57.124L58.4326 58.0384H59.0665L60.3751 61.6748H59.7927L58.7646 58.699H58.7362L57.7064 61.6748ZM57.804 60.2508H59.6932V60.7124H57.804V60.2508Z" fill="black"/>
</g>
<g clip-path="url(#clip11_947_1087)">
<path d="M84.5283 52.1416C86.6684 50.2155 89.9947 50.5153 91.7559 52.793L92.4414 53.6797C93.1117 54.5467 93.4756 55.6121 93.4756 56.708V67C93.4756 69.7338 91.2592 71.9502 88.5254 71.9502H78.332C77.1764 71.9502 76.0568 71.5462 75.168 70.8076L72.8057 68.8438C70.225 66.699 70.4815 62.6619 73.3125 60.8604L78.1758 57.7656C78.4117 57.6155 78.6349 57.4459 78.8428 57.2588L84.5283 52.1416Z" fill="#969696" stroke="black" stroke-width="0.1"/>
<rect x="71.1" y="49.6" width="20.3" height="20.3" rx="3.9" fill="white" stroke="black" stroke-width="0.2"/>
<path d="M80.2064 61.6748H79.624L80.9326 58.0384H81.5665L82.8751 61.6748H82.2927L81.2646 58.699H81.2362L80.2064 61.6748ZM80.304 60.2508H82.1932V60.7124H80.304V60.2508Z" fill="black"/>
</g>
<g clip-path="url(#clip12_947_1087)">
<path d="M17.0283 74.6416C19.1684 72.7155 22.4947 73.0153 24.2559 75.293L24.9414 76.1797C25.6117 77.0467 25.9756 78.1121 25.9756 79.208V89.5C25.9756 92.2338 23.7592 94.4502 21.0254 94.4502H10.832C9.67643 94.4502 8.55676 94.0462 7.66797 93.3076L5.30566 91.3438C2.72503 89.199 2.98147 85.1619 5.8125 83.3604L10.6758 80.2656C10.9117 80.1155 11.1349 79.9459 11.3428 79.7588L17.0283 74.6416Z" fill="#969696" stroke="black" stroke-width="0.1"/>
<rect x="3.6" y="72.1" width="20.3" height="20.3" rx="3.9" fill="white" stroke="black" stroke-width="0.2"/>
<path d="M12.7064 84.1748H12.124L13.4326 80.5384H14.0665L15.3751 84.1748H14.7927L13.7646 81.199H13.7362L12.7064 84.1748ZM12.804 82.7508H14.6932V83.2124H12.804V82.7508Z" fill="black"/>
</g>
<g clip-path="url(#clip13_947_1087)">
<path d="M39.5283 74.6416C41.6684 72.7155 44.9947 73.0153 46.7559 75.293L47.4414 76.1797C48.1117 77.0467 48.4756 78.1121 48.4756 79.208V89.5C48.4756 92.2338 46.2592 94.4502 43.5254 94.4502H33.332C32.1764 94.4502 31.0568 94.0462 30.168 93.3076L27.8057 91.3438C25.225 89.199 25.4815 85.1619 28.3125 83.3604L33.1758 80.2656C33.4117 80.1155 33.6349 79.9459 33.8428 79.7588L39.5283 74.6416Z" fill="#969696" stroke="black" stroke-width="0.1"/>
<rect x="26.1" y="72.1" width="20.3" height="20.3" rx="3.9" fill="white" stroke="black" stroke-width="0.2"/>
<path d="M35.2064 84.1748H34.624L35.9326 80.5384H36.5665L37.8751 84.1748H37.2927L36.2646 81.199H36.2362L35.2064 84.1748ZM35.304 82.7508H37.1932V83.2124H35.304V82.7508Z" fill="black"/>
</g>
<g clip-path="url(#clip14_947_1087)">
<path d="M62.0283 74.6416C64.1684 72.7155 67.4947 73.0153 69.2559 75.293L69.9414 76.1797C70.6117 77.0467 70.9756 78.1121 70.9756 79.208V89.5C70.9756 92.2338 68.7592 94.4502 66.0254 94.4502H55.832C54.6764 94.4502 53.5568 94.0462 52.668 93.3076L50.3057 91.3438C47.725 89.199 47.9815 85.1619 50.8125 83.3604L55.6758 80.2656C55.9117 80.1155 56.1349 79.9459 56.3428 79.7588L62.0283 74.6416Z" fill="#969696" stroke="black" stroke-width="0.1"/>
<rect x="48.6" y="72.1" width="20.3" height="20.3" rx="3.9" fill="white" stroke="black" stroke-width="0.2"/>
<path d="M57.7064 84.1748H57.124L58.4326 80.5384H59.0665L60.3751 84.1748H59.7927L58.7646 81.199H58.7362L57.7064 84.1748ZM57.804 82.7508H59.6932V83.2124H57.804V82.7508Z" fill="black"/>
</g>
<g clip-path="url(#clip15_947_1087)">
<path d="M84.5283 74.6416C86.6684 72.7155 89.9947 73.0153 91.7559 75.293L92.4414 76.1797C93.1117 77.0467 93.4756 78.1121 93.4756 79.208V89.5C93.4756 92.2338 91.2592 94.4502 88.5254 94.4502H78.332C77.1764 94.4502 76.0568 94.0462 75.168 93.3076L72.8057 91.3438C70.225 89.199 70.4815 85.1619 73.3125 83.3604L78.1758 80.2656C78.4117 80.1155 78.6349 79.9459 78.8428 79.7588L84.5283 74.6416Z" fill="#969696" stroke="black" stroke-width="0.1"/>
<rect x="71.1" y="72.1" width="20.3" height="20.3" rx="3.9" fill="white" stroke="black" stroke-width="0.2"/>
<path d="M80.2064 84.1748H79.624L80.9326 80.5384H81.5665L82.8751 84.1748H82.2927L81.2646 81.199H81.2362L80.2064 84.1748ZM80.304 82.7508H82.1932V83.2124H80.304V82.7508Z" fill="black"/>
</g>
<mask id="path-54-inside-2_947_1087" fill="white">
<path d="M100 0L114.142 14.1421V114.142L100 100V0Z"/>
</mask>
<path d="M100 0L114.142 14.1421V114.142L100 100V0Z" fill="#D9D9D9"/>
<path d="M114.142 14.1421L114.849 14.8492V13.8492L114.142 13.1421V14.1421ZM114.142 114.142V115.142L114.849 115.849V114.849L114.142 114.142ZM100 0V1L114.142 15.1421V14.1421V13.1421L100 -1V0ZM114.142 14.1421L113.435 13.435V113.435L114.142 114.142L114.849 114.849V14.8492L114.142 14.1421ZM114.142 114.142V113.142L100 99V100V101L114.142 115.142V114.142Z" fill="black" mask="url(#path-54-inside-2_947_1087)"/>
<line y1="-0.5" x2="15" y2="-0.5" transform="matrix(0.707107 0.707107 0 1 101.414 98.4141)" stroke="black"/>
<line y1="-0.5" x2="15" y2="-0.5" transform="matrix(0.707107 0.707107 0 1 101.414 95.4141)" stroke="black"/>
<line y1="-0.5" x2="15" y2="-0.5" transform="matrix(0.707107 0.707107 0 1 101.414 92.4141)" stroke="black"/>
<line y1="-0.5" x2="15" y2="-0.5" transform="matrix(0.707107 0.707107 0 1 101.414 89.4141)" stroke="black"/>
<line y1="-0.5" x2="15" y2="-0.5" transform="matrix(0.707107 0.707107 0 1 101.414 86.4141)" stroke="black"/>
<line y1="-0.5" x2="15" y2="-0.5" transform="matrix(0.707107 0.707107 0 1 101.414 83.4141)" stroke="black"/>
<line y1="-0.5" x2="15" y2="-0.5" transform="matrix(0.707107 0.707107 0 1 101.414 80.4141)" stroke="black"/>
<line y1="-0.5" x2="15" y2="-0.5" transform="matrix(0.707107 0.707107 0 1 101.414 77.4141)" stroke="black"/>
<line y1="-0.5" x2="15" y2="-0.5" transform="matrix(0.707107 0.707107 0 1 101.414 74.4141)" stroke="black"/>
<line y1="-0.5" x2="15" y2="-0.5" transform="matrix(0.707107 0.707107 0 1 101.414 71.4141)" stroke="black"/>
<line y1="-0.5" x2="15" y2="-0.5" transform="matrix(0.707107 0.707107 0 1 101.414 68.4141)" stroke="black"/>
<line y1="-0.5" x2="15" y2="-0.5" transform="matrix(0.707107 0.707107 0 1 101.414 65.4141)" stroke="black"/>
<line y1="-0.5" x2="15" y2="-0.5" transform="matrix(0.707107 0.707107 0 1 101.414 62.4141)" stroke="black"/>
<line y1="-0.5" x2="15" y2="-0.5" transform="matrix(0.707107 0.707107 0 1 101.414 59.4141)" stroke="black"/>
<line y1="-0.5" x2="15" y2="-0.5" transform="matrix(0.707107 0.707107 0 1 101.414 56.4141)" stroke="black"/>
<line y1="-0.5" x2="15" y2="-0.5" transform="matrix(0.707107 0.707107 0 1 101.414 53.4141)" stroke="black"/>
<line y1="-0.5" x2="15" y2="-0.5" transform="matrix(0.707107 0.707107 0 1 101.414 50.4141)" stroke="black"/>
<line y1="-0.5" x2="15" y2="-0.5" transform="matrix(0.707107 0.707107 0 1 101.414 47.4141)" stroke="black"/>
<line y1="-0.5" x2="15" y2="-0.5" transform="matrix(0.707107 0.707107 0 1 101.414 44.4141)" stroke="black"/>
<line y1="-0.5" x2="15" y2="-0.5" transform="matrix(0.707107 0.707107 0 1 101.414 41.4141)" stroke="black"/>
<line y1="-0.5" x2="15" y2="-0.5" transform="matrix(0.707107 0.707107 0 1 101.414 38.4141)" stroke="black"/>
<line y1="-0.5" x2="15" y2="-0.5" transform="matrix(0.707107 0.707107 0 1 101.414 35.4141)" stroke="black"/>
<line y1="-0.5" x2="15" y2="-0.5" transform="matrix(0.707107 0.707107 0 1 101.414 32.4141)" stroke="black"/>
<line y1="-0.5" x2="15" y2="-0.5" transform="matrix(0.707107 0.707107 0 1 101.414 29.4141)" stroke="black"/>
<line y1="-0.5" x2="15" y2="-0.5" transform="matrix(0.707107 0.707107 0 1 101.414 26.4141)" stroke="black"/>
<line y1="-0.5" x2="15" y2="-0.5" transform="matrix(0.707107 0.707107 0 1 101.414 23.4141)" stroke="black"/>
<line y1="-0.5" x2="15" y2="-0.5" transform="matrix(0.707107 0.707107 0 1 101.414 20.4141)" stroke="black"/>
<line y1="-0.5" x2="15" y2="-0.5" transform="matrix(0.707107 0.707107 0 1 101.414 17.4141)" stroke="black"/>
<line y1="-0.5" x2="15" y2="-0.5" transform="matrix(0.707107 0.707107 0 1 101.414 14.4141)" stroke="black"/>
<line y1="-0.5" x2="15" y2="-0.5" transform="matrix(0.707107 0.707107 0 1 101.414 11.4141)" stroke="black"/>
<line y1="-0.5" x2="15" y2="-0.5" transform="matrix(0.707107 0.707107 0 1 101.414 8.41406)" stroke="black"/>
<line y1="-0.5" x2="15" y2="-0.5" transform="matrix(0.707107 0.707107 0 1 101.414 5.41406)" stroke="black"/>
<mask id="path-88-inside-3_947_1087" fill="white">
<path d="M0 100H100L114.142 114.142H14.1421L0 100Z"/>
</mask>
<path d="M0 100H100L114.142 114.142H14.1421L0 100Z" fill="#D9D9D9"/>
<path d="M14.1421 114.142H13.1421L13.8492 114.849H14.8492L14.1421 114.142ZM114.142 114.142L113.435 113.435H13.435L14.1421 114.142L14.8492 114.849H114.849L114.142 114.142ZM14.1421 114.142H15.1421L1 100H0H-1L13.1421 114.142H14.1421Z" fill="black" mask="url(#path-88-inside-3_947_1087)"/>
<line y1="-0.5" x2="15" y2="-0.5" transform="matrix(0.707107 0.707107 -1 0 4.41406 101.414)" stroke="black"/>
<line y1="-0.5" x2="15" y2="-0.5" transform="matrix(0.707107 0.707107 -1 0 7.41406 101.414)" stroke="black"/>
<line y1="-0.5" x2="15" y2="-0.5" transform="matrix(0.707107 0.707107 -1 0 10.4141 101.414)" stroke="black"/>
<line y1="-0.5" x2="15" y2="-0.5" transform="matrix(0.707107 0.707107 -1 0 13.4141 101.414)" stroke="black"/>
<line y1="-0.5" x2="15" y2="-0.5" transform="matrix(0.707107 0.707107 -1 0 16.4141 101.414)" stroke="black"/>
<line y1="-0.5" x2="15" y2="-0.5" transform="matrix(0.707107 0.707107 -1 0 19.4141 101.414)" stroke="black"/>
<line y1="-0.5" x2="15" y2="-0.5" transform="matrix(0.707107 0.707107 -1 0 22.4141 101.414)" stroke="black"/>
<line y1="-0.5" x2="15" y2="-0.5" transform="matrix(0.707107 0.707107 -1 0 25.4141 101.414)" stroke="black"/>
<line y1="-0.5" x2="15" y2="-0.5" transform="matrix(0.707107 0.707107 -1 0 28.4141 101.414)" stroke="black"/>
<line y1="-0.5" x2="15" y2="-0.5" transform="matrix(0.707107 0.707107 -1 0 31.4141 101.414)" stroke="black"/>
<line y1="-0.5" x2="15" y2="-0.5" transform="matrix(0.707107 0.707107 -1 0 34.4141 101.414)" stroke="black"/>
<line y1="-0.5" x2="15" y2="-0.5" transform="matrix(0.707107 0.707107 -1 0 37.4141 101.414)" stroke="black"/>
<line y1="-0.5" x2="15" y2="-0.5" transform="matrix(0.707107 0.707107 -1 0 40.4141 101.414)" stroke="black"/>
<line y1="-0.5" x2="15" y2="-0.5" transform="matrix(0.707107 0.707107 -1 0 43.4141 101.414)" stroke="black"/>
<line y1="-0.5" x2="15" y2="-0.5" transform="matrix(0.707107 0.707107 -1 0 46.4141 101.414)" stroke="black"/>
<line y1="-0.5" x2="15" y2="-0.5" transform="matrix(0.707107 0.707107 -1 0 49.4141 101.414)" stroke="black"/>
<line y1="-0.5" x2="15" y2="-0.5" transform="matrix(0.707107 0.707107 -1 0 52.4141 101.414)" stroke="black"/>
<line y1="-0.5" x2="15" y2="-0.5" transform="matrix(0.707107 0.707107 -1 0 55.4141 101.414)" stroke="black"/>
<line y1="-0.5" x2="15" y2="-0.5" transform="matrix(0.707107 0.707107 -1 0 58.4141 101.414)" stroke="black"/>
<line y1="-0.5" x2="15" y2="-0.5" transform="matrix(0.707107 0.707107 -1 0 61.4141 101.414)" stroke="black"/>
<line y1="-0.5" x2="15" y2="-0.5" transform="matrix(0.707107 0.707107 -1 0 64.4141 101.414)" stroke="black"/>
<line y1="-0.5" x2="15" y2="-0.5" transform="matrix(0.707107 0.707107 -1 0 67.4141 101.414)" stroke="black"/>
<line y1="-0.5" x2="15" y2="-0.5" transform="matrix(0.707107 0.707107 -1 0 70.4141 101.414)" stroke="black"/>
<line y1="-0.5" x2="15" y2="-0.5" transform="matrix(0.707107 0.707107 -1 0 73.4141 101.414)" stroke="black"/>
<line y1="-0.5" x2="15" y2="-0.5" transform="matrix(0.707107 0.707107 -1 0 76.4141 101.414)" stroke="black"/>
<line y1="-0.5" x2="15" y2="-0.5" transform="matrix(0.707107 0.707107 -1 0 79.4141 101.414)" stroke="black"/>
<line y1="-0.5" x2="15" y2="-0.5" transform="matrix(0.707107 0.707107 -1 0 82.4141 101.414)" stroke="black"/>
<line y1="-0.5" x2="15" y2="-0.5" transform="matrix(0.707107 0.707107 -1 0 85.4141 101.414)" stroke="black"/>
<line y1="-0.5" x2="15" y2="-0.5" transform="matrix(0.707107 0.707107 -1 0 88.4141 101.414)" stroke="black"/>
<line y1="-0.5" x2="15" y2="-0.5" transform="matrix(0.707107 0.707107 -1 0 91.4141 101.414)" stroke="black"/>
<line y1="-0.5" x2="15" y2="-0.5" transform="matrix(0.707107 0.707107 -1 0 94.4141 101.414)" stroke="black"/>
<line y1="-0.5" x2="15" y2="-0.5" transform="matrix(0.707107 0.707107 -1 0 97.4141 101.414)" stroke="black"/>
<defs>
<clipPath id="clip0_947_1087">
<rect width="22.5" height="22.5" fill="white" transform="translate(3.5 4.5)"/>
</clipPath>
<clipPath id="clip1_947_1087">
<rect width="22.5" height="22.5" fill="white" transform="translate(26 4.5)"/>
</clipPath>
<clipPath id="clip2_947_1087">
<rect width="22.5" height="22.5" fill="white" transform="translate(48.5 4.5)"/>
</clipPath>
<clipPath id="clip3_947_1087">
<rect width="22.5" height="22.5" fill="white" transform="translate(71 4.5)"/>
</clipPath>
<clipPath id="clip4_947_1087">
<rect width="22.5" height="22.5" fill="white" transform="translate(3.5 27)"/>
</clipPath>
<clipPath id="clip5_947_1087">
<rect width="22.5" height="22.5" fill="white" transform="translate(26 27)"/>
</clipPath>
<clipPath id="clip6_947_1087">
<rect width="22.5" height="22.5" fill="white" transform="translate(48.5 27)"/>
</clipPath>
<clipPath id="clip7_947_1087">
<rect width="22.5" height="22.5" fill="white" transform="translate(71 27)"/>
</clipPath>
<clipPath id="clip8_947_1087">
<rect width="22.5" height="22.5" fill="white" transform="translate(3.5 49.5)"/>
</clipPath>
<clipPath id="clip9_947_1087">
<rect width="22.5" height="22.5" fill="white" transform="translate(26 49.5)"/>
</clipPath>
<clipPath id="clip10_947_1087">
<rect width="22.5" height="22.5" fill="white" transform="translate(48.5 49.5)"/>
</clipPath>
<clipPath id="clip11_947_1087">
<rect width="22.5" height="22.5" fill="white" transform="translate(71 49.5)"/>
</clipPath>
<clipPath id="clip12_947_1087">
<rect width="22.5" height="22.5" fill="white" transform="translate(3.5 72)"/>
</clipPath>
<clipPath id="clip13_947_1087">
<rect width="22.5" height="22.5" fill="white" transform="translate(26 72)"/>
</clipPath>
<clipPath id="clip14_947_1087">
<rect width="22.5" height="22.5" fill="white" transform="translate(48.5 72)"/>
</clipPath>
<clipPath id="clip15_947_1087">
<rect width="22.5" height="22.5" fill="white" transform="translate(71 72)"/>
</clipPath>
</defs>
</svg>
