<svg width="115" height="115" viewBox="0 0 115 115" fill="none" xmlns="http://www.w3.org/2000/svg" xmlns:xlink="http://www.w3.org/1999/xlink">
<rect x="0.5" y="0.5" width="99" height="99" fill="white" stroke="black"/>
<mask id="path-2-inside-1_912_286" fill="white">
<path d="M100 0L114.142 14.1421V114.142L100 100V0Z"/>
</mask>
<path d="M100 0L114.142 14.1421V114.142L100 100V0Z" fill="white"/>
<path d="M114.142 14.1421L114.849 14.8492V13.8492L114.142 13.1421V14.1421ZM114.142 114.142V115.142L114.849 115.849V114.849L114.142 114.142ZM100 0V1L114.142 15.1421V14.1421V13.1421L100 -1V0ZM114.142 14.1421L113.435 13.435V113.435L114.142 114.142L114.849 114.849V14.8492L114.142 14.1421ZM114.142 114.142V113.142L100 99V100V101L114.142 115.142V114.142Z" fill="black" mask="url(#path-2-inside-1_912_286)"/>
<mask id="path-4-inside-2_912_286" fill="white">
<path d="M100 0L114.142 14.1421V114.142L100 100V0Z"/>
</mask>
<path d="M100 0L114.142 14.1421V114.142L100 100V0Z" fill="url(#pattern0_912_286)"/>
<path d="M114.142 14.1421L114.849 14.8492V13.8492L114.142 13.1421V14.1421ZM114.142 114.142V115.142L114.849 115.849V114.849L114.142 114.142ZM100 0V1L114.142 15.1421V14.1421V13.1421L100 -1V0ZM114.142 14.1421L113.435 13.435V113.435L114.142 114.142L114.849 114.849V14.8492L114.142 14.1421ZM114.142 114.142V113.142L100 99V100V101L114.142 115.142V114.142Z" fill="black" mask="url(#path-4-inside-2_912_286)"/>
<mask id="path-7-inside-3_912_286" fill="white">
<path d="M0 100H100L114.142 114.142H14.1421L0 100Z"/>
</mask>
<path d="M0 100H100L114.142 114.142H14.1421L0 100Z" fill="white"/>
<path d="M14.1421 114.142H13.1421L13.8492 114.849H14.8492L14.1421 114.142ZM114.142 114.142L113.435 113.435H13.435L14.1421 114.142L14.8492 114.849H114.849L114.142 114.142ZM14.1421 114.142H15.1421L1 100H0H-1L13.1421 114.142H14.1421Z" fill="black" mask="url(#path-7-inside-3_912_286)"/>
<mask id="path-9-inside-4_912_286" fill="white">
<path d="M0 100H100L114.142 114.142H14.1421L0 100Z"/>
</mask>
<path d="M0 100H100L114.142 114.142H14.1421L0 100Z" fill="url(#pattern1_912_286)"/>
<path d="M14.1421 114.142H13.1421L13.8492 114.849H14.8492L14.1421 114.142ZM114.142 114.142L113.435 113.435H13.435L14.1421 114.142L14.8492 114.849H114.849L114.142 114.142ZM14.1421 114.142H15.1421L1 100H0H-1L13.1421 114.142H14.1421Z" fill="black" mask="url(#path-9-inside-4_912_286)"/>
<defs>
<pattern id="pattern0_912_286" patternUnits="userSpaceOnUse" patternTransform="matrix(209.304 209.304 0 138 99.6464 -0.853553)" preserveAspectRatio="none" viewBox="-0.5 -0.5 296 138" width="1" height="1">
<use xlink:href="#pattern0_912_286_inner" transform="translate(-296 -138)"/>
<use xlink:href="#pattern0_912_286_inner" transform="translate(0 -138)"/>
<use xlink:href="#pattern0_912_286_inner" transform="translate(-296 0)"/>
<g id="pattern0_912_286_inner">
<path d="M5.52146 0L0 6.53249M10.8029 0L0 12.781M16.0843 0L0 19.0295M21.3657 0L0 25.278M26.6472 0L0 31.5266M31.9286 0L0 37.7751M37.21 0L0 44.0236M42.4915 0L0 50.2721M47.7729 0L0 56.5206M53.0543 0L0 62.7691M58.3358 0L0 69.0177M63.6172 0L0 75.2662M68.8986 0L0 81.5147M74.18 0L0 87.7632M79.4615 0L0 94.0117M84.7429 0L0 100.26M90.0243 0L0 106.509M95.3057 0L0 112.757M100.587 0L0 119.006M105.869 0L0 125.254M111.15 0L0 131.503M116.431 0L0 137.751M5.07125 138L121.713 0M10.3527 138L126.994 0M15.6341 138L132.276 0M20.9155 138L137.557 0M26.197 138L142.839 0M31.4784 138L148.12 0M36.7598 138L153.401 0M42.0412 138L158.683 0M47.3227 138L163.964 0M52.6041 138L169.246 0M57.8855 138L174.527 0M63.167 138L179.809 0M68.4484 138L185.09 0M73.7298 138L190.371 0M79.0112 138L195.653 0M84.2927 138L200.934 0M89.5741 138L206.216 0M94.8555 138L211.497 0M100.137 138L216.779 0M105.418 138L222.06 0M110.7 138L227.341 0M115.981 138L232.623 0M121.263 138L237.904 0M126.544 138L243.186 0M131.826 138L248.467 0M137.107 138L253.749 0M142.388 138L259.03 0M147.67 138L264.311 0M152.951 138L269.593 0M158.233 138L274.874 0M163.514 138L280.156 0M168.796 138L285.437 0M174.077 138L290.719 0M179.358 138L296 0M184.64 138L295.55 6.78116L295.79 12.7458M189.921 138L295.79 12.7458M195.203 138L295.79 18.9943M200.484 138L295.79 25.2428M205.766 138L295.79 31.4914M211.047 138L295.79 37.7399M216.328 138L295.79 43.9884M221.61 138L295.79 50.2369M226.891 138L295.79 56.4854M232.173 138L295.79 62.7339M237.454 138L295.775 69L295.79 62.7339M242.736 138L295.79 75.231M248.017 138L295.79 81.4795M253.298 138L295.79 87.728M258.58 138L295.79 93.9765M263.861 138L295.79 100.225M269.143 138L295.79 106.474M274.424 138L295.79 112.722M279.706 138L295.79 118.971M284.987 138L295.79 125.219M290.268 138L295.79 131.468M295.79 12.7458V0H0V6.53249M295.79 12.7458V18.9943M295.79 18.9943V25.2428M295.79 25.2428V31.4914M295.79 31.4914V37.7399M295.79 37.7399V43.9884M295.79 43.9884V50.2369M295.79 50.2369V56.4854M295.79 56.4854V62.7339M295.79 62.7339V75.231M295.79 75.231V81.4795M295.79 81.4795V87.728M295.79 87.728V93.9765M295.79 93.9765V100.225M295.79 100.225V106.474M295.79 106.474V112.722M295.79 112.722V118.971M295.79 118.971V125.219M295.79 125.219V131.468M295.79 131.468V138H0V137.751M0 6.53249V12.781M0 12.781V19.0295M0 19.0295V25.278M0 25.278V31.5266M0 31.5266V37.7751M0 37.7751V44.0236M0 44.0236V50.2721M0 50.2721V56.5206M0 56.5206V62.7691M0 62.7691V69.0177M0 69.0177V75.2662M0 75.2662V81.5147M0 81.5147V87.7632M0 87.7632V94.0117M0 94.0117V100.26M0 100.26V106.509M0 106.509V112.757M0 112.757V119.006M0 119.006V125.254M0 125.254V131.503M0 131.503V137.751" stroke="#4D4B4B"/>
</g>
</pattern><pattern id="pattern1_912_286" patternUnits="userSpaceOnUse" patternTransform="matrix(296 0 97.5807 97.5807 -0.853553 99.6464)" preserveAspectRatio="none" viewBox="-0.5 -0.5 296 138" width="1" height="1">
<use xlink:href="#pattern1_912_286_inner" transform="translate(-296 -138)"/>
<use xlink:href="#pattern1_912_286_inner" transform="translate(0 -138)"/>
<use xlink:href="#pattern1_912_286_inner" transform="translate(-296 0)"/>
<g id="pattern1_912_286_inner">
<path d="M5.52146 0L0 6.53249M10.8029 0L0 12.781M16.0843 0L0 19.0295M21.3657 0L0 25.278M26.6472 0L0 31.5266M31.9286 0L0 37.7751M37.21 0L0 44.0236M42.4915 0L0 50.2721M47.7729 0L0 56.5206M53.0543 0L0 62.7691M58.3358 0L0 69.0177M63.6172 0L0 75.2662M68.8986 0L0 81.5147M74.18 0L0 87.7632M79.4615 0L0 94.0117M84.7429 0L0 100.26M90.0243 0L0 106.509M95.3057 0L0 112.757M100.587 0L0 119.006M105.869 0L0 125.254M111.15 0L0 131.503M116.431 0L0 137.751M5.07125 138L121.713 0M10.3527 138L126.994 0M15.6341 138L132.276 0M20.9155 138L137.557 0M26.197 138L142.839 0M31.4784 138L148.12 0M36.7598 138L153.401 0M42.0412 138L158.683 0M47.3227 138L163.964 0M52.6041 138L169.246 0M57.8855 138L174.527 0M63.167 138L179.809 0M68.4484 138L185.09 0M73.7298 138L190.371 0M79.0112 138L195.653 0M84.2927 138L200.934 0M89.5741 138L206.216 0M94.8555 138L211.497 0M100.137 138L216.779 0M105.418 138L222.06 0M110.7 138L227.341 0M115.981 138L232.623 0M121.263 138L237.904 0M126.544 138L243.186 0M131.826 138L248.467 0M137.107 138L253.749 0M142.388 138L259.03 0M147.67 138L264.311 0M152.951 138L269.593 0M158.233 138L274.874 0M163.514 138L280.156 0M168.796 138L285.437 0M174.077 138L290.719 0M179.358 138L296 0M184.64 138L295.55 6.78116L295.79 12.7458M189.921 138L295.79 12.7458M195.203 138L295.79 18.9943M200.484 138L295.79 25.2428M205.766 138L295.79 31.4914M211.047 138L295.79 37.7399M216.328 138L295.79 43.9884M221.61 138L295.79 50.2369M226.891 138L295.79 56.4854M232.173 138L295.79 62.7339M237.454 138L295.775 69L295.79 62.7339M242.736 138L295.79 75.231M248.017 138L295.79 81.4795M253.298 138L295.79 87.728M258.58 138L295.79 93.9765M263.861 138L295.79 100.225M269.143 138L295.79 106.474M274.424 138L295.79 112.722M279.706 138L295.79 118.971M284.987 138L295.79 125.219M290.268 138L295.79 131.468M295.79 12.7458V0H0V6.53249M295.79 12.7458V18.9943M295.79 18.9943V25.2428M295.79 25.2428V31.4914M295.79 31.4914V37.7399M295.79 37.7399V43.9884M295.79 43.9884V50.2369M295.79 50.2369V56.4854M295.79 56.4854V62.7339M295.79 62.7339V75.231M295.79 75.231V81.4795M295.79 81.4795V87.728M295.79 87.728V93.9765M295.79 93.9765V100.225M295.79 100.225V106.474M295.79 106.474V112.722M295.79 112.722V118.971M295.79 118.971V125.219M295.79 125.219V131.468M295.79 131.468V138H0V137.751M0 6.53249V12.781M0 12.781V19.0295M0 19.0295V25.278M0 25.278V31.5266M0 31.5266V37.7751M0 37.7751V44.0236M0 44.0236V50.2721M0 50.2721V56.5206M0 56.5206V62.7691M0 62.7691V69.0177M0 69.0177V75.2662M0 75.2662V81.5147M0 81.5147V87.7632M0 87.7632V94.0117M0 94.0117V100.26M0 100.26V106.509M0 106.509V112.757M0 112.757V119.006M0 119.006V125.254M0 125.254V131.503M0 131.503V137.751" stroke="#4D4B4B"/>
</g>
</pattern></defs>
</svg>
