<svg width="115" height="115" viewBox="0 0 115 115" fill="none" xmlns="http://www.w3.org/2000/svg" xmlns:xlink="http://www.w3.org/1999/xlink">
<rect x="0.5" y="0.5" width="99" height="99" fill="white" stroke="black"/>
<mask id="path-2-inside-1_912_331" fill="white">
<path d="M100 0L114.142 14.1421V114.142L100 100V0Z"/>
</mask>
<path d="M100 0L114.142 14.1421V114.142L100 100V0Z" fill="white"/>
<path d="M114.142 14.1421L114.849 14.8492V13.8492L114.142 13.1421V14.1421ZM114.142 114.142V115.142L114.849 115.849V114.849L114.142 114.142ZM100 0V1L114.142 15.1421V14.1421V13.1421L100 -1V0ZM114.142 14.1421L113.435 13.435V113.435L114.142 114.142L114.849 114.849V14.8492L114.142 14.1421ZM114.142 114.142V113.142L100 99V100V101L114.142 115.142V114.142Z" fill="black" mask="url(#path-2-inside-1_912_331)"/>
<mask id="path-4-inside-2_912_331" fill="white">
<path d="M100 0L114.142 14.1421V114.142L100 100V0Z"/>
</mask>
<path d="M100 0L114.142 14.1421V114.142L100 100V0Z" fill="url(#pattern0_912_331)"/>
<path d="M114.142 14.1421L114.849 14.8492V13.8492L114.142 13.1421V14.1421ZM114.142 114.142V115.142L114.849 115.849V114.849L114.142 114.142ZM100 0V1L114.142 15.1421V14.1421V13.1421L100 -1V0ZM114.142 14.1421L113.435 13.435V113.435L114.142 114.142L114.849 114.849V14.8492L114.142 14.1421ZM114.142 114.142V113.142L100 99V100V101L114.142 115.142V114.142Z" fill="black" mask="url(#path-4-inside-2_912_331)"/>
<mask id="path-7-inside-3_912_331" fill="white">
<path d="M0 100H100L114.142 114.142H14.1421L0 100Z"/>
</mask>
<path d="M0 100H100L114.142 114.142H14.1421L0 100Z" fill="white"/>
<path d="M14.1421 114.142H13.1421L13.8492 114.849H14.8492L14.1421 114.142ZM114.142 114.142L113.435 113.435H13.435L14.1421 114.142L14.8492 114.849H114.849L114.142 114.142ZM14.1421 114.142H15.1421L1 100H0H-1L13.1421 114.142H14.1421Z" fill="black" mask="url(#path-7-inside-3_912_331)"/>
<mask id="path-9-inside-4_912_331" fill="white">
<path d="M0 100H100L114.142 114.142H14.1421L0 100Z"/>
</mask>
<path d="M0 100H100L114.142 114.142H14.1421L0 100Z" fill="url(#pattern1_912_331)"/>
<path d="M14.1421 114.142H13.1421L13.8492 114.849H14.8492L14.1421 114.142ZM114.142 114.142L113.435 113.435H13.435L14.1421 114.142L14.8492 114.849H114.849L114.142 114.142ZM14.1421 114.142H15.1421L1 100H0H-1L13.1421 114.142H14.1421Z" fill="black" mask="url(#path-9-inside-4_912_331)"/>
<rect x="7.5" y="7.5" width="19" height="19" fill="white" stroke="black"/>
<mask id="path-13-inside-5_912_331" fill="white">
<path d="M27 7L29.8284 9.82843V29.8284L27 27V7Z"/>
</mask>
<path d="M27 7L29.8284 9.82843V29.8284L27 27V7Z" fill="white"/>
<path d="M29.8284 9.82843L30.5355 10.5355V9.53553L29.8284 8.82843V9.82843ZM29.8284 29.8284V30.8284L30.5355 31.5355V30.5355L29.8284 29.8284ZM27 7V8L29.8284 10.8284V9.82843V8.82843L27 6V7ZM29.8284 9.82843L29.1213 9.12132V29.1213L29.8284 29.8284L30.5355 30.5355V10.5355L29.8284 9.82843ZM29.8284 29.8284V28.8284L27 26V27V28L29.8284 30.8284V29.8284Z" fill="black" mask="url(#path-13-inside-5_912_331)"/>
<mask id="path-15-inside-6_912_331" fill="white">
<path d="M7 27H27L29.8284 29.8284H9.82843L7 27Z"/>
</mask>
<path d="M7 27H27L29.8284 29.8284H9.82843L7 27Z" fill="white"/>
<path d="M9.82843 29.8284H8.82843L9.53553 30.5355H10.5355L9.82843 29.8284ZM29.8284 29.8284L29.1213 29.1213H9.12132L9.82843 29.8284L10.5355 30.5355H30.5355L29.8284 29.8284ZM9.82843 29.8284H10.8284L8 27H7H6L8.82843 29.8284H9.82843Z" fill="black" mask="url(#path-15-inside-6_912_331)"/>
<rect x="37.5" y="7.5" width="19" height="19" fill="white" stroke="black"/>
<mask id="path-18-inside-7_912_331" fill="white">
<path d="M57 7L59.8284 9.82843V29.8284L57 27V7Z"/>
</mask>
<path d="M57 7L59.8284 9.82843V29.8284L57 27V7Z" fill="white"/>
<path d="M59.8284 9.82843L60.5355 10.5355V9.53553L59.8284 8.82843V9.82843ZM59.8284 29.8284V30.8284L60.5355 31.5355V30.5355L59.8284 29.8284ZM57 7V8L59.8284 10.8284V9.82843V8.82843L57 6V7ZM59.8284 9.82843L59.1213 9.12132V29.1213L59.8284 29.8284L60.5355 30.5355V10.5355L59.8284 9.82843ZM59.8284 29.8284V28.8284L57 26V27V28L59.8284 30.8284V29.8284Z" fill="black" mask="url(#path-18-inside-7_912_331)"/>
<mask id="path-20-inside-8_912_331" fill="white">
<path d="M37 27H57L59.8284 29.8284H39.8284L37 27Z"/>
</mask>
<path d="M37 27H57L59.8284 29.8284H39.8284L37 27Z" fill="white"/>
<path d="M39.8284 29.8284H38.8284L39.5355 30.5355H40.5355L39.8284 29.8284ZM59.8284 29.8284L59.1213 29.1213H39.1213L39.8284 29.8284L40.5355 30.5355H60.5355L59.8284 29.8284ZM39.8284 29.8284H40.8284L38 27H37H36L38.8284 29.8284H39.8284Z" fill="black" mask="url(#path-20-inside-8_912_331)"/>
<rect x="67.5" y="7.5" width="19" height="19" fill="white" stroke="black"/>
<mask id="path-23-inside-9_912_331" fill="white">
<path d="M87 7L89.8284 9.82843V29.8284L87 27V7Z"/>
</mask>
<path d="M87 7L89.8284 9.82843V29.8284L87 27V7Z" fill="white"/>
<path d="M89.8284 9.82843L90.5355 10.5355V9.53553L89.8284 8.82843V9.82843ZM89.8284 29.8284V30.8284L90.5355 31.5355V30.5355L89.8284 29.8284ZM87 7V8L89.8284 10.8284V9.82843V8.82843L87 6V7ZM89.8284 9.82843L89.1213 9.12132V29.1213L89.8284 29.8284L90.5355 30.5355V10.5355L89.8284 9.82843ZM89.8284 29.8284V28.8284L87 26V27V28L89.8284 30.8284V29.8284Z" fill="black" mask="url(#path-23-inside-9_912_331)"/>
<mask id="path-25-inside-10_912_331" fill="white">
<path d="M67 27H87L89.8284 29.8284H69.8284L67 27Z"/>
</mask>
<path d="M67 27H87L89.8284 29.8284H69.8284L67 27Z" fill="white"/>
<path d="M69.8284 29.8284H68.8284L69.5355 30.5355H70.5355L69.8284 29.8284ZM89.8284 29.8284L89.1213 29.1213H69.1213L69.8284 29.8284L70.5355 30.5355H90.5355L89.8284 29.8284ZM69.8284 29.8284H70.8284L68 27H67H66L68.8284 29.8284H69.8284Z" fill="black" mask="url(#path-25-inside-10_912_331)"/>
<rect x="67.5" y="37.5" width="19" height="19" fill="white" stroke="black"/>
<mask id="path-28-inside-11_912_331" fill="white">
<path d="M87 37L89.8284 39.8284V59.8284L87 57V37Z"/>
</mask>
<path d="M87 37L89.8284 39.8284V59.8284L87 57V37Z" fill="white"/>
<path d="M89.8284 39.8284L90.5355 40.5355V39.5355L89.8284 38.8284V39.8284ZM89.8284 59.8284V60.8284L90.5355 61.5355V60.5355L89.8284 59.8284ZM87 37V38L89.8284 40.8284V39.8284V38.8284L87 36V37ZM89.8284 39.8284L89.1213 39.1213V59.1213L89.8284 59.8284L90.5355 60.5355V40.5355L89.8284 39.8284ZM89.8284 59.8284V58.8284L87 56V57V58L89.8284 60.8284V59.8284Z" fill="black" mask="url(#path-28-inside-11_912_331)"/>
<mask id="path-30-inside-12_912_331" fill="white">
<path d="M67 57H87L89.8284 59.8284H69.8284L67 57Z"/>
</mask>
<path d="M67 57H87L89.8284 59.8284H69.8284L67 57Z" fill="white"/>
<path d="M69.8284 59.8284H68.8284L69.5355 60.5355H70.5355L69.8284 59.8284ZM89.8284 59.8284L89.1213 59.1213H69.1213L69.8284 59.8284L70.5355 60.5355H90.5355L89.8284 59.8284ZM69.8284 59.8284H70.8284L68 57H67H66L68.8284 59.8284H69.8284Z" fill="black" mask="url(#path-30-inside-12_912_331)"/>
<rect x="37.5" y="37.5" width="19" height="19" fill="white" stroke="black"/>
<mask id="path-33-inside-13_912_331" fill="white">
<path d="M57 37L59.8284 39.8284V59.8284L57 57V37Z"/>
</mask>
<path d="M57 37L59.8284 39.8284V59.8284L57 57V37Z" fill="white"/>
<path d="M59.8284 39.8284L60.5355 40.5355V39.5355L59.8284 38.8284V39.8284ZM59.8284 59.8284V60.8284L60.5355 61.5355V60.5355L59.8284 59.8284ZM57 37V38L59.8284 40.8284V39.8284V38.8284L57 36V37ZM59.8284 39.8284L59.1213 39.1213V59.1213L59.8284 59.8284L60.5355 60.5355V40.5355L59.8284 39.8284ZM59.8284 59.8284V58.8284L57 56V57V58L59.8284 60.8284V59.8284Z" fill="black" mask="url(#path-33-inside-13_912_331)"/>
<mask id="path-35-inside-14_912_331" fill="white">
<path d="M37 57H57L59.8284 59.8284H39.8284L37 57Z"/>
</mask>
<path d="M37 57H57L59.8284 59.8284H39.8284L37 57Z" fill="white"/>
<path d="M39.8284 59.8284H38.8284L39.5355 60.5355H40.5355L39.8284 59.8284ZM59.8284 59.8284L59.1213 59.1213H39.1213L39.8284 59.8284L40.5355 60.5355H60.5355L59.8284 59.8284ZM39.8284 59.8284H40.8284L38 57H37H36L38.8284 59.8284H39.8284Z" fill="black" mask="url(#path-35-inside-14_912_331)"/>
<rect x="7.5" y="37.5" width="19" height="19" fill="white" stroke="black"/>
<mask id="path-38-inside-15_912_331" fill="white">
<path d="M27 37L29.8284 39.8284V59.8284L27 57V37Z"/>
</mask>
<path d="M27 37L29.8284 39.8284V59.8284L27 57V37Z" fill="white"/>
<path d="M29.8284 39.8284L30.5355 40.5355V39.5355L29.8284 38.8284V39.8284ZM29.8284 59.8284V60.8284L30.5355 61.5355V60.5355L29.8284 59.8284ZM27 37V38L29.8284 40.8284V39.8284V38.8284L27 36V37ZM29.8284 39.8284L29.1213 39.1213V59.1213L29.8284 59.8284L30.5355 60.5355V40.5355L29.8284 39.8284ZM29.8284 59.8284V58.8284L27 56V57V58L29.8284 60.8284V59.8284Z" fill="black" mask="url(#path-38-inside-15_912_331)"/>
<mask id="path-40-inside-16_912_331" fill="white">
<path d="M7 57H27L29.8284 59.8284H9.82843L7 57Z"/>
</mask>
<path d="M7 57H27L29.8284 59.8284H9.82843L7 57Z" fill="white"/>
<path d="M9.82843 59.8284H8.82843L9.53553 60.5355H10.5355L9.82843 59.8284ZM29.8284 59.8284L29.1213 59.1213H9.12132L9.82843 59.8284L10.5355 60.5355H30.5355L29.8284 59.8284ZM9.82843 59.8284H10.8284L8 57H7H6L8.82843 59.8284H9.82843Z" fill="black" mask="url(#path-40-inside-16_912_331)"/>
<rect x="7.5" y="67.5" width="19" height="19" fill="white" stroke="black"/>
<mask id="path-43-inside-17_912_331" fill="white">
<path d="M27 67L29.8284 69.8284V89.8284L27 87V67Z"/>
</mask>
<path d="M27 67L29.8284 69.8284V89.8284L27 87V67Z" fill="white"/>
<path d="M29.8284 69.8284L30.5355 70.5355V69.5355L29.8284 68.8284V69.8284ZM29.8284 89.8284V90.8284L30.5355 91.5355V90.5355L29.8284 89.8284ZM27 67V68L29.8284 70.8284V69.8284V68.8284L27 66V67ZM29.8284 69.8284L29.1213 69.1213V89.1213L29.8284 89.8284L30.5355 90.5355V70.5355L29.8284 69.8284ZM29.8284 89.8284V88.8284L27 86V87V88L29.8284 90.8284V89.8284Z" fill="black" mask="url(#path-43-inside-17_912_331)"/>
<mask id="path-45-inside-18_912_331" fill="white">
<path d="M7 87H27L29.8284 89.8284H9.82843L7 87Z"/>
</mask>
<path d="M7 87H27L29.8284 89.8284H9.82843L7 87Z" fill="white"/>
<path d="M9.82843 89.8284H8.82843L9.53553 90.5355H10.5355L9.82843 89.8284ZM29.8284 89.8284L29.1213 89.1213H9.12132L9.82843 89.8284L10.5355 90.5355H30.5355L29.8284 89.8284ZM9.82843 89.8284H10.8284L8 87H7H6L8.82843 89.8284H9.82843Z" fill="black" mask="url(#path-45-inside-18_912_331)"/>
<rect x="37.5" y="67.5" width="19" height="19" fill="white" stroke="black"/>
<mask id="path-48-inside-19_912_331" fill="white">
<path d="M57 67L59.8284 69.8284V89.8284L57 87V67Z"/>
</mask>
<path d="M57 67L59.8284 69.8284V89.8284L57 87V67Z" fill="white"/>
<path d="M59.8284 69.8284L60.5355 70.5355V69.5355L59.8284 68.8284V69.8284ZM59.8284 89.8284V90.8284L60.5355 91.5355V90.5355L59.8284 89.8284ZM57 67V68L59.8284 70.8284V69.8284V68.8284L57 66V67ZM59.8284 69.8284L59.1213 69.1213V89.1213L59.8284 89.8284L60.5355 90.5355V70.5355L59.8284 69.8284ZM59.8284 89.8284V88.8284L57 86V87V88L59.8284 90.8284V89.8284Z" fill="black" mask="url(#path-48-inside-19_912_331)"/>
<mask id="path-50-inside-20_912_331" fill="white">
<path d="M37 87H57L59.8284 89.8284H39.8284L37 87Z"/>
</mask>
<path d="M37 87H57L59.8284 89.8284H39.8284L37 87Z" fill="white"/>
<path d="M39.8284 89.8284H38.8284L39.5355 90.5355H40.5355L39.8284 89.8284ZM59.8284 89.8284L59.1213 89.1213H39.1213L39.8284 89.8284L40.5355 90.5355H60.5355L59.8284 89.8284ZM39.8284 89.8284H40.8284L38 87H37H36L38.8284 89.8284H39.8284Z" fill="black" mask="url(#path-50-inside-20_912_331)"/>
<rect x="67.5" y="67.5" width="19" height="19" fill="white" stroke="black"/>
<mask id="path-53-inside-21_912_331" fill="white">
<path d="M87 67L89.8284 69.8284V89.8284L87 87V67Z"/>
</mask>
<path d="M87 67L89.8284 69.8284V89.8284L87 87V67Z" fill="white"/>
<path d="M89.8284 69.8284L90.5355 70.5355V69.5355L89.8284 68.8284V69.8284ZM89.8284 89.8284V90.8284L90.5355 91.5355V90.5355L89.8284 89.8284ZM87 67V68L89.8284 70.8284V69.8284V68.8284L87 66V67ZM89.8284 69.8284L89.1213 69.1213V89.1213L89.8284 89.8284L90.5355 90.5355V70.5355L89.8284 69.8284ZM89.8284 89.8284V88.8284L87 86V87V88L89.8284 90.8284V89.8284Z" fill="black" mask="url(#path-53-inside-21_912_331)"/>
<mask id="path-55-inside-22_912_331" fill="white">
<path d="M67 87H87L89.8284 89.8284H69.8284L67 87Z"/>
</mask>
<path d="M67 87H87L89.8284 89.8284H69.8284L67 87Z" fill="white"/>
<path d="M69.8284 89.8284H68.8284L69.5355 90.5355H70.5355L69.8284 89.8284ZM89.8284 89.8284L89.1213 89.1213H69.1213L69.8284 89.8284L70.5355 90.5355H90.5355L89.8284 89.8284ZM69.8284 89.8284H70.8284L68 87H67H66L68.8284 89.8284H69.8284Z" fill="black" mask="url(#path-55-inside-22_912_331)"/>
<defs>
<pattern id="pattern0_912_331" patternUnits="userSpaceOnUse" patternTransform="matrix(209.304 209.304 0 138 99.6464 -0.853553)" preserveAspectRatio="none" viewBox="-0.5 -0.5 296 138" width="1" height="1">
<use xlink:href="#pattern0_912_331_inner" transform="translate(-296 -138)"/>
<use xlink:href="#pattern0_912_331_inner" transform="translate(0 -138)"/>
<use xlink:href="#pattern0_912_331_inner" transform="translate(-296 0)"/>
<g id="pattern0_912_331_inner">
<path d="M5.52146 0L0 6.53249M10.8029 0L0 12.781M16.0843 0L0 19.0295M21.3657 0L0 25.278M26.6472 0L0 31.5266M31.9286 0L0 37.7751M37.21 0L0 44.0236M42.4915 0L0 50.2721M47.7729 0L0 56.5206M53.0543 0L0 62.7691M58.3358 0L0 69.0177M63.6172 0L0 75.2662M68.8986 0L0 81.5147M74.18 0L0 87.7632M79.4615 0L0 94.0117M84.7429 0L0 100.26M90.0243 0L0 106.509M95.3057 0L0 112.757M100.587 0L0 119.006M105.869 0L0 125.254M111.15 0L0 131.503M116.431 0L0 137.751M5.07125 138L121.713 0M10.3527 138L126.994 0M15.6341 138L132.276 0M20.9155 138L137.557 0M26.197 138L142.839 0M31.4784 138L148.12 0M36.7598 138L153.401 0M42.0412 138L158.683 0M47.3227 138L163.964 0M52.6041 138L169.246 0M57.8855 138L174.527 0M63.167 138L179.809 0M68.4484 138L185.09 0M73.7298 138L190.371 0M79.0112 138L195.653 0M84.2927 138L200.934 0M89.5741 138L206.216 0M94.8555 138L211.497 0M100.137 138L216.779 0M105.418 138L222.06 0M110.7 138L227.341 0M115.981 138L232.623 0M121.263 138L237.904 0M126.544 138L243.186 0M131.826 138L248.467 0M137.107 138L253.749 0M142.388 138L259.03 0M147.67 138L264.311 0M152.951 138L269.593 0M158.233 138L274.874 0M163.514 138L280.156 0M168.796 138L285.437 0M174.077 138L290.719 0M179.358 138L296 0M184.64 138L295.55 6.78116L295.79 12.7458M189.921 138L295.79 12.7458M195.203 138L295.79 18.9943M200.484 138L295.79 25.2428M205.766 138L295.79 31.4914M211.047 138L295.79 37.7399M216.328 138L295.79 43.9884M221.61 138L295.79 50.2369M226.891 138L295.79 56.4854M232.173 138L295.79 62.7339M237.454 138L295.775 69L295.79 62.7339M242.736 138L295.79 75.231M248.017 138L295.79 81.4795M253.298 138L295.79 87.728M258.58 138L295.79 93.9765M263.861 138L295.79 100.225M269.143 138L295.79 106.474M274.424 138L295.79 112.722M279.706 138L295.79 118.971M284.987 138L295.79 125.219M290.268 138L295.79 131.468M295.79 12.7458V0H0V6.53249M295.79 12.7458V18.9943M295.79 18.9943V25.2428M295.79 25.2428V31.4914M295.79 31.4914V37.7399M295.79 37.7399V43.9884M295.79 43.9884V50.2369M295.79 50.2369V56.4854M295.79 56.4854V62.7339M295.79 62.7339V75.231M295.79 75.231V81.4795M295.79 81.4795V87.728M295.79 87.728V93.9765M295.79 93.9765V100.225M295.79 100.225V106.474M295.79 106.474V112.722M295.79 112.722V118.971M295.79 118.971V125.219M295.79 125.219V131.468M295.79 131.468V138H0V137.751M0 6.53249V12.781M0 12.781V19.0295M0 19.0295V25.278M0 25.278V31.5266M0 31.5266V37.7751M0 37.7751V44.0236M0 44.0236V50.2721M0 50.2721V56.5206M0 56.5206V62.7691M0 62.7691V69.0177M0 69.0177V75.2662M0 75.2662V81.5147M0 81.5147V87.7632M0 87.7632V94.0117M0 94.0117V100.26M0 100.26V106.509M0 106.509V112.757M0 112.757V119.006M0 119.006V125.254M0 125.254V131.503M0 131.503V137.751" stroke="#4D4B4B"/>
</g>
</pattern><pattern id="pattern1_912_331" patternUnits="userSpaceOnUse" patternTransform="matrix(296 0 97.5807 97.5807 -0.853553 99.6464)" preserveAspectRatio="none" viewBox="-0.5 -0.5 296 138" width="1" height="1">
<use xlink:href="#pattern1_912_331_inner" transform="translate(-296 -138)"/>
<use xlink:href="#pattern1_912_331_inner" transform="translate(0 -138)"/>
<use xlink:href="#pattern1_912_331_inner" transform="translate(-296 0)"/>
<g id="pattern1_912_331_inner">
<path d="M5.52146 0L0 6.53249M10.8029 0L0 12.781M16.0843 0L0 19.0295M21.3657 0L0 25.278M26.6472 0L0 31.5266M31.9286 0L0 37.7751M37.21 0L0 44.0236M42.4915 0L0 50.2721M47.7729 0L0 56.5206M53.0543 0L0 62.7691M58.3358 0L0 69.0177M63.6172 0L0 75.2662M68.8986 0L0 81.5147M74.18 0L0 87.7632M79.4615 0L0 94.0117M84.7429 0L0 100.26M90.0243 0L0 106.509M95.3057 0L0 112.757M100.587 0L0 119.006M105.869 0L0 125.254M111.15 0L0 131.503M116.431 0L0 137.751M5.07125 138L121.713 0M10.3527 138L126.994 0M15.6341 138L132.276 0M20.9155 138L137.557 0M26.197 138L142.839 0M31.4784 138L148.12 0M36.7598 138L153.401 0M42.0412 138L158.683 0M47.3227 138L163.964 0M52.6041 138L169.246 0M57.8855 138L174.527 0M63.167 138L179.809 0M68.4484 138L185.09 0M73.7298 138L190.371 0M79.0112 138L195.653 0M84.2927 138L200.934 0M89.5741 138L206.216 0M94.8555 138L211.497 0M100.137 138L216.779 0M105.418 138L222.06 0M110.7 138L227.341 0M115.981 138L232.623 0M121.263 138L237.904 0M126.544 138L243.186 0M131.826 138L248.467 0M137.107 138L253.749 0M142.388 138L259.03 0M147.67 138L264.311 0M152.951 138L269.593 0M158.233 138L274.874 0M163.514 138L280.156 0M168.796 138L285.437 0M174.077 138L290.719 0M179.358 138L296 0M184.64 138L295.55 6.78116L295.79 12.7458M189.921 138L295.79 12.7458M195.203 138L295.79 18.9943M200.484 138L295.79 25.2428M205.766 138L295.79 31.4914M211.047 138L295.79 37.7399M216.328 138L295.79 43.9884M221.61 138L295.79 50.2369M226.891 138L295.79 56.4854M232.173 138L295.79 62.7339M237.454 138L295.775 69L295.79 62.7339M242.736 138L295.79 75.231M248.017 138L295.79 81.4795M253.298 138L295.79 87.728M258.58 138L295.79 93.9765M263.861 138L295.79 100.225M269.143 138L295.79 106.474M274.424 138L295.79 112.722M279.706 138L295.79 118.971M284.987 138L295.79 125.219M290.268 138L295.79 131.468M295.79 12.7458V0H0V6.53249M295.79 12.7458V18.9943M295.79 18.9943V25.2428M295.79 25.2428V31.4914M295.79 31.4914V37.7399M295.79 37.7399V43.9884M295.79 43.9884V50.2369M295.79 50.2369V56.4854M295.79 56.4854V62.7339M295.79 62.7339V75.231M295.79 75.231V81.4795M295.79 81.4795V87.728M295.79 87.728V93.9765M295.79 93.9765V100.225M295.79 100.225V106.474M295.79 106.474V112.722M295.79 112.722V118.971M295.79 118.971V125.219M295.79 125.219V131.468M295.79 131.468V138H0V137.751M0 6.53249V12.781M0 12.781V19.0295M0 19.0295V25.278M0 25.278V31.5266M0 31.5266V37.7751M0 37.7751V44.0236M0 44.0236V50.2721M0 50.2721V56.5206M0 56.5206V62.7691M0 62.7691V69.0177M0 69.0177V75.2662M0 75.2662V81.5147M0 81.5147V87.7632M0 87.7632V94.0117M0 94.0117V100.26M0 100.26V106.509M0 106.509V112.757M0 112.757V119.006M0 119.006V125.254M0 125.254V131.503M0 131.503V137.751" stroke="#4D4B4B"/>
</g>
</pattern></defs>
</svg>
